<mxfile host="app.diagrams.net" modified="2021-09-25T11:34:35.723Z" agent="5.0 (Windows NT 10.0; Win64; x64) AppleWebKit/537.36 (KHTML, like Gecko) Chrome/94.0.4606.54 Safari/537.36" etag="VeL9A5zPo54xQ9pwSw4w" version="15.3.1" type="github">
  <diagram id="AN8AjkqI3SNzSPV8RxcP" name="Page-1">
    <mxGraphModel dx="1550" dy="779" grid="1" gridSize="10" guides="1" tooltips="1" connect="1" arrows="1" fold="1" page="1" pageScale="1" pageWidth="827" pageHeight="1169" background="#F1FAEE" math="0" shadow="0">
      <root>
        <mxCell id="0" />
        <mxCell id="1" parent="0" />
        <mxCell id="qDmlWPMKRpsVleZsCN6D-2" style="edgeStyle=none;orthogonalLoop=1;jettySize=auto;html=1;entryX=0.5;entryY=0;entryDx=0;entryDy=0;strokeColor=#457B9D;fontColor=#1D3557;labelBackgroundColor=#F1FAEE;" edge="1" parent="1" source="qDmlWPMKRpsVleZsCN6D-4" target="qDmlWPMKRpsVleZsCN6D-8">
          <mxGeometry relative="1" as="geometry" />
        </mxCell>
        <mxCell id="qDmlWPMKRpsVleZsCN6D-3" style="edgeStyle=none;orthogonalLoop=1;jettySize=auto;html=1;exitX=0;exitY=0.5;exitDx=0;exitDy=0;entryX=0.5;entryY=0;entryDx=0;entryDy=0;strokeColor=#457B9D;fontColor=#1D3557;labelBackgroundColor=#F1FAEE;" edge="1" parent="1" source="qDmlWPMKRpsVleZsCN6D-4" target="qDmlWPMKRpsVleZsCN6D-7">
          <mxGeometry relative="1" as="geometry" />
        </mxCell>
        <mxCell id="qDmlWPMKRpsVleZsCN6D-4" value="2" style="ellipse;whiteSpace=wrap;html=1;aspect=fixed;fillColor=#A8DADC;strokeColor=#457B9D;fontColor=#1D3557;" vertex="1" parent="1">
          <mxGeometry x="324" y="642" width="20" height="20" as="geometry" />
        </mxCell>
        <mxCell id="qDmlWPMKRpsVleZsCN6D-6" style="edgeStyle=none;orthogonalLoop=1;jettySize=auto;html=1;entryX=0.5;entryY=0;entryDx=0;entryDy=0;strokeColor=#457B9D;fontColor=#1D3557;labelBackgroundColor=#F1FAEE;" edge="1" parent="1" source="qDmlWPMKRpsVleZsCN6D-7" target="qDmlWPMKRpsVleZsCN6D-10">
          <mxGeometry relative="1" as="geometry" />
        </mxCell>
        <mxCell id="qDmlWPMKRpsVleZsCN6D-24" style="orthogonalLoop=1;jettySize=auto;html=1;entryX=0.5;entryY=0;entryDx=0;entryDy=0;strokeColor=#457B9D;fontColor=#1D3557;labelBackgroundColor=#F1FAEE;" edge="1" parent="1" source="qDmlWPMKRpsVleZsCN6D-7" target="qDmlWPMKRpsVleZsCN6D-18">
          <mxGeometry relative="1" as="geometry" />
        </mxCell>
        <mxCell id="qDmlWPMKRpsVleZsCN6D-7" value="7" style="ellipse;whiteSpace=wrap;html=1;aspect=fixed;fillColor=#A8DADC;strokeColor=#457B9D;fontColor=#1D3557;" vertex="1" parent="1">
          <mxGeometry x="254" y="712" width="20" height="20" as="geometry" />
        </mxCell>
        <mxCell id="qDmlWPMKRpsVleZsCN6D-35" style="edgeStyle=none;orthogonalLoop=1;jettySize=auto;html=1;entryX=0.5;entryY=0;entryDx=0;entryDy=0;strokeColor=#457B9D;fontColor=#1D3557;labelBackgroundColor=#F1FAEE;" edge="1" parent="1" source="qDmlWPMKRpsVleZsCN6D-8" target="qDmlWPMKRpsVleZsCN6D-25">
          <mxGeometry relative="1" as="geometry" />
        </mxCell>
        <mxCell id="qDmlWPMKRpsVleZsCN6D-36" style="edgeStyle=none;orthogonalLoop=1;jettySize=auto;html=1;entryX=0.5;entryY=0;entryDx=0;entryDy=0;strokeColor=#457B9D;fontColor=#1D3557;labelBackgroundColor=#F1FAEE;" edge="1" parent="1" source="qDmlWPMKRpsVleZsCN6D-8" target="qDmlWPMKRpsVleZsCN6D-26">
          <mxGeometry relative="1" as="geometry" />
        </mxCell>
        <mxCell id="qDmlWPMKRpsVleZsCN6D-8" value="26" style="ellipse;whiteSpace=wrap;html=1;aspect=fixed;fillColor=#A8DADC;strokeColor=#457B9D;fontColor=#1D3557;" vertex="1" parent="1">
          <mxGeometry x="394" y="712" width="20" height="20" as="geometry" />
        </mxCell>
        <mxCell id="qDmlWPMKRpsVleZsCN6D-39" style="edgeStyle=none;orthogonalLoop=1;jettySize=auto;html=1;entryX=0.5;entryY=0;entryDx=0;entryDy=0;strokeColor=#457B9D;fontColor=#1D3557;labelBackgroundColor=#F1FAEE;" edge="1" parent="1" source="qDmlWPMKRpsVleZsCN6D-10" target="qDmlWPMKRpsVleZsCN6D-29">
          <mxGeometry relative="1" as="geometry" />
        </mxCell>
        <mxCell id="qDmlWPMKRpsVleZsCN6D-10" value="19" style="ellipse;whiteSpace=wrap;html=1;aspect=fixed;fillColor=#e3c800;strokeColor=#B09500;fontColor=#000000;" vertex="1" parent="1">
          <mxGeometry x="294" y="782" width="20" height="20" as="geometry" />
        </mxCell>
        <mxCell id="qDmlWPMKRpsVleZsCN6D-37" style="edgeStyle=none;orthogonalLoop=1;jettySize=auto;html=1;entryX=0.5;entryY=0;entryDx=0;entryDy=0;strokeColor=#457B9D;fontColor=#1D3557;labelBackgroundColor=#F1FAEE;" edge="1" parent="1" source="qDmlWPMKRpsVleZsCN6D-18" target="qDmlWPMKRpsVleZsCN6D-27">
          <mxGeometry relative="1" as="geometry" />
        </mxCell>
        <mxCell id="qDmlWPMKRpsVleZsCN6D-38" style="edgeStyle=none;orthogonalLoop=1;jettySize=auto;html=1;entryX=0.5;entryY=0;entryDx=0;entryDy=0;strokeColor=#457B9D;fontColor=#1D3557;labelBackgroundColor=#F1FAEE;" edge="1" parent="1" source="qDmlWPMKRpsVleZsCN6D-18" target="qDmlWPMKRpsVleZsCN6D-28">
          <mxGeometry relative="1" as="geometry" />
        </mxCell>
        <mxCell id="qDmlWPMKRpsVleZsCN6D-18" value="25" style="ellipse;whiteSpace=wrap;html=1;aspect=fixed;fillColor=#A8DADC;strokeColor=#457B9D;fontColor=#1D3557;" vertex="1" parent="1">
          <mxGeometry x="194" y="782" width="20" height="20" as="geometry" />
        </mxCell>
        <mxCell id="qDmlWPMKRpsVleZsCN6D-25" value="17" style="ellipse;whiteSpace=wrap;html=1;aspect=fixed;fillColor=#A8DADC;strokeColor=#457B9D;fontColor=#1D3557;" vertex="1" parent="1">
          <mxGeometry x="364" y="782" width="20" height="20" as="geometry" />
        </mxCell>
        <mxCell id="qDmlWPMKRpsVleZsCN6D-26" value="1" style="ellipse;whiteSpace=wrap;html=1;aspect=fixed;fillColor=#A8DADC;strokeColor=#457B9D;fontColor=#1D3557;" vertex="1" parent="1">
          <mxGeometry x="444" y="782" width="20" height="20" as="geometry" />
        </mxCell>
        <mxCell id="qDmlWPMKRpsVleZsCN6D-27" value="90" style="ellipse;whiteSpace=wrap;html=1;aspect=fixed;fillColor=#A8DADC;strokeColor=#457B9D;fontColor=#1D3557;" vertex="1" parent="1">
          <mxGeometry x="164" y="852" width="20" height="20" as="geometry" />
        </mxCell>
        <mxCell id="qDmlWPMKRpsVleZsCN6D-28" value="3" style="ellipse;whiteSpace=wrap;html=1;aspect=fixed;fillColor=#A8DADC;strokeColor=#457B9D;fontColor=#1D3557;" vertex="1" parent="1">
          <mxGeometry x="224" y="852" width="20" height="20" as="geometry" />
        </mxCell>
        <mxCell id="qDmlWPMKRpsVleZsCN6D-29" value="36" style="ellipse;whiteSpace=wrap;html=1;aspect=fixed;fillColor=#A8DADC;strokeColor=#457B9D;fontColor=#1D3557;" vertex="1" parent="1">
          <mxGeometry x="274" y="852" width="20" height="20" as="geometry" />
        </mxCell>
        <mxCell id="qDmlWPMKRpsVleZsCN6D-309" style="edgeStyle=none;orthogonalLoop=1;jettySize=auto;html=1;entryX=0.5;entryY=0;entryDx=0;entryDy=0;strokeColor=#457B9D;fontColor=#1D3557;labelBackgroundColor=#F1FAEE;" edge="1" parent="1" source="qDmlWPMKRpsVleZsCN6D-311" target="qDmlWPMKRpsVleZsCN6D-317">
          <mxGeometry relative="1" as="geometry" />
        </mxCell>
        <mxCell id="qDmlWPMKRpsVleZsCN6D-310" style="edgeStyle=none;orthogonalLoop=1;jettySize=auto;html=1;exitX=0;exitY=0.5;exitDx=0;exitDy=0;entryX=0.5;entryY=0;entryDx=0;entryDy=0;strokeColor=#457B9D;fontColor=#1D3557;labelBackgroundColor=#F1FAEE;" edge="1" parent="1" source="qDmlWPMKRpsVleZsCN6D-311" target="qDmlWPMKRpsVleZsCN6D-314">
          <mxGeometry relative="1" as="geometry" />
        </mxCell>
        <mxCell id="qDmlWPMKRpsVleZsCN6D-311" value="2" style="ellipse;whiteSpace=wrap;html=1;aspect=fixed;fillColor=#A8DADC;strokeColor=#457B9D;fontColor=#1D3557;" vertex="1" parent="1">
          <mxGeometry x="696" y="642" width="20" height="20" as="geometry" />
        </mxCell>
        <mxCell id="qDmlWPMKRpsVleZsCN6D-312" style="edgeStyle=none;orthogonalLoop=1;jettySize=auto;html=1;entryX=0.5;entryY=0;entryDx=0;entryDy=0;strokeColor=#457B9D;fontColor=#1D3557;labelBackgroundColor=#F1FAEE;" edge="1" parent="1" source="qDmlWPMKRpsVleZsCN6D-314" target="qDmlWPMKRpsVleZsCN6D-319">
          <mxGeometry relative="1" as="geometry" />
        </mxCell>
        <mxCell id="qDmlWPMKRpsVleZsCN6D-313" style="orthogonalLoop=1;jettySize=auto;html=1;entryX=0.5;entryY=0;entryDx=0;entryDy=0;strokeColor=#457B9D;fontColor=#1D3557;labelBackgroundColor=#F1FAEE;" edge="1" parent="1" source="qDmlWPMKRpsVleZsCN6D-314" target="qDmlWPMKRpsVleZsCN6D-322">
          <mxGeometry relative="1" as="geometry" />
        </mxCell>
        <mxCell id="qDmlWPMKRpsVleZsCN6D-314" value="7" style="ellipse;whiteSpace=wrap;html=1;aspect=fixed;fillColor=#A8DADC;strokeColor=#457B9D;fontColor=#1D3557;" vertex="1" parent="1">
          <mxGeometry x="626" y="712" width="20" height="20" as="geometry" />
        </mxCell>
        <mxCell id="qDmlWPMKRpsVleZsCN6D-315" style="edgeStyle=none;orthogonalLoop=1;jettySize=auto;html=1;entryX=0.5;entryY=0;entryDx=0;entryDy=0;strokeColor=#457B9D;fontColor=#1D3557;labelBackgroundColor=#F1FAEE;" edge="1" parent="1" source="qDmlWPMKRpsVleZsCN6D-317" target="qDmlWPMKRpsVleZsCN6D-323">
          <mxGeometry relative="1" as="geometry" />
        </mxCell>
        <mxCell id="qDmlWPMKRpsVleZsCN6D-316" style="edgeStyle=none;orthogonalLoop=1;jettySize=auto;html=1;entryX=0.5;entryY=0;entryDx=0;entryDy=0;strokeColor=#457B9D;fontColor=#1D3557;labelBackgroundColor=#F1FAEE;" edge="1" parent="1" source="qDmlWPMKRpsVleZsCN6D-317" target="qDmlWPMKRpsVleZsCN6D-324">
          <mxGeometry relative="1" as="geometry" />
        </mxCell>
        <mxCell id="qDmlWPMKRpsVleZsCN6D-317" value="26" style="ellipse;whiteSpace=wrap;html=1;aspect=fixed;fillColor=#A8DADC;strokeColor=#457B9D;fontColor=#1D3557;" vertex="1" parent="1">
          <mxGeometry x="766" y="712" width="20" height="20" as="geometry" />
        </mxCell>
        <mxCell id="qDmlWPMKRpsVleZsCN6D-318" style="edgeStyle=none;orthogonalLoop=1;jettySize=auto;html=1;entryX=0.5;entryY=0;entryDx=0;entryDy=0;strokeColor=#457B9D;fontColor=#1D3557;labelBackgroundColor=#F1FAEE;" edge="1" parent="1" source="qDmlWPMKRpsVleZsCN6D-319" target="qDmlWPMKRpsVleZsCN6D-327">
          <mxGeometry relative="1" as="geometry" />
        </mxCell>
        <mxCell id="qDmlWPMKRpsVleZsCN6D-319" value="36" style="ellipse;whiteSpace=wrap;html=1;aspect=fixed;fillColor=#e51400;strokeColor=#B20000;fontColor=#ffffff;" vertex="1" parent="1">
          <mxGeometry x="666" y="782" width="20" height="20" as="geometry" />
        </mxCell>
        <mxCell id="qDmlWPMKRpsVleZsCN6D-320" style="edgeStyle=none;orthogonalLoop=1;jettySize=auto;html=1;entryX=0.5;entryY=0;entryDx=0;entryDy=0;strokeColor=#457B9D;fontColor=#1D3557;labelBackgroundColor=#F1FAEE;" edge="1" parent="1" source="qDmlWPMKRpsVleZsCN6D-322" target="qDmlWPMKRpsVleZsCN6D-325">
          <mxGeometry relative="1" as="geometry" />
        </mxCell>
        <mxCell id="qDmlWPMKRpsVleZsCN6D-321" style="edgeStyle=none;orthogonalLoop=1;jettySize=auto;html=1;entryX=0.5;entryY=0;entryDx=0;entryDy=0;strokeColor=#457B9D;fontColor=#1D3557;labelBackgroundColor=#F1FAEE;" edge="1" parent="1" source="qDmlWPMKRpsVleZsCN6D-322" target="qDmlWPMKRpsVleZsCN6D-326">
          <mxGeometry relative="1" as="geometry" />
        </mxCell>
        <mxCell id="qDmlWPMKRpsVleZsCN6D-322" value="25" style="ellipse;whiteSpace=wrap;html=1;aspect=fixed;fillColor=#A8DADC;strokeColor=#457B9D;fontColor=#1D3557;" vertex="1" parent="1">
          <mxGeometry x="566" y="782" width="20" height="20" as="geometry" />
        </mxCell>
        <mxCell id="qDmlWPMKRpsVleZsCN6D-323" value="17" style="ellipse;whiteSpace=wrap;html=1;aspect=fixed;fillColor=#A8DADC;strokeColor=#457B9D;fontColor=#1D3557;" vertex="1" parent="1">
          <mxGeometry x="736" y="782" width="20" height="20" as="geometry" />
        </mxCell>
        <mxCell id="qDmlWPMKRpsVleZsCN6D-324" value="1" style="ellipse;whiteSpace=wrap;html=1;aspect=fixed;fillColor=#A8DADC;strokeColor=#457B9D;fontColor=#1D3557;" vertex="1" parent="1">
          <mxGeometry x="816" y="782" width="20" height="20" as="geometry" />
        </mxCell>
        <mxCell id="qDmlWPMKRpsVleZsCN6D-325" value="90" style="ellipse;whiteSpace=wrap;html=1;aspect=fixed;fillColor=#A8DADC;strokeColor=#457B9D;fontColor=#1D3557;" vertex="1" parent="1">
          <mxGeometry x="536" y="852" width="20" height="20" as="geometry" />
        </mxCell>
        <mxCell id="qDmlWPMKRpsVleZsCN6D-326" value="3" style="ellipse;whiteSpace=wrap;html=1;aspect=fixed;fillColor=#A8DADC;strokeColor=#457B9D;fontColor=#1D3557;" vertex="1" parent="1">
          <mxGeometry x="596" y="852" width="20" height="20" as="geometry" />
        </mxCell>
        <mxCell id="qDmlWPMKRpsVleZsCN6D-327" value="36" style="ellipse;whiteSpace=wrap;html=1;aspect=fixed;fillColor=#A8DADC;strokeColor=#457B9D;fontColor=#1D3557;" vertex="1" parent="1">
          <mxGeometry x="646" y="852" width="20" height="20" as="geometry" />
        </mxCell>
        <mxCell id="qDmlWPMKRpsVleZsCN6D-328" style="edgeStyle=none;orthogonalLoop=1;jettySize=auto;html=1;entryX=0.5;entryY=0;entryDx=0;entryDy=0;strokeColor=#457B9D;fontColor=#1D3557;labelBackgroundColor=#F1FAEE;" edge="1" parent="1" source="qDmlWPMKRpsVleZsCN6D-330" target="qDmlWPMKRpsVleZsCN6D-336">
          <mxGeometry relative="1" as="geometry" />
        </mxCell>
        <mxCell id="qDmlWPMKRpsVleZsCN6D-329" style="edgeStyle=none;orthogonalLoop=1;jettySize=auto;html=1;exitX=0;exitY=0.5;exitDx=0;exitDy=0;entryX=0.5;entryY=0;entryDx=0;entryDy=0;strokeColor=#457B9D;fontColor=#1D3557;labelBackgroundColor=#F1FAEE;" edge="1" parent="1" source="qDmlWPMKRpsVleZsCN6D-330" target="qDmlWPMKRpsVleZsCN6D-333">
          <mxGeometry relative="1" as="geometry" />
        </mxCell>
        <mxCell id="qDmlWPMKRpsVleZsCN6D-330" value="2" style="ellipse;whiteSpace=wrap;html=1;aspect=fixed;fillColor=#A8DADC;strokeColor=#457B9D;fontColor=#1D3557;" vertex="1" parent="1">
          <mxGeometry x="1053" y="652" width="20" height="20" as="geometry" />
        </mxCell>
        <mxCell id="qDmlWPMKRpsVleZsCN6D-331" style="edgeStyle=none;orthogonalLoop=1;jettySize=auto;html=1;entryX=0.5;entryY=0;entryDx=0;entryDy=0;strokeColor=#457B9D;fontColor=#1D3557;labelBackgroundColor=#F1FAEE;" edge="1" parent="1" source="qDmlWPMKRpsVleZsCN6D-333" target="qDmlWPMKRpsVleZsCN6D-338">
          <mxGeometry relative="1" as="geometry" />
        </mxCell>
        <mxCell id="qDmlWPMKRpsVleZsCN6D-332" style="orthogonalLoop=1;jettySize=auto;html=1;entryX=0.5;entryY=0;entryDx=0;entryDy=0;strokeColor=#457B9D;fontColor=#1D3557;labelBackgroundColor=#F1FAEE;" edge="1" parent="1" source="qDmlWPMKRpsVleZsCN6D-333" target="qDmlWPMKRpsVleZsCN6D-341">
          <mxGeometry relative="1" as="geometry" />
        </mxCell>
        <mxCell id="qDmlWPMKRpsVleZsCN6D-333" value="7" style="ellipse;whiteSpace=wrap;html=1;aspect=fixed;fillColor=#A8DADC;strokeColor=#457B9D;fontColor=#1D3557;" vertex="1" parent="1">
          <mxGeometry x="983" y="722" width="20" height="20" as="geometry" />
        </mxCell>
        <mxCell id="qDmlWPMKRpsVleZsCN6D-334" style="edgeStyle=none;orthogonalLoop=1;jettySize=auto;html=1;entryX=0.5;entryY=0;entryDx=0;entryDy=0;strokeColor=#457B9D;fontColor=#1D3557;labelBackgroundColor=#F1FAEE;" edge="1" parent="1" source="qDmlWPMKRpsVleZsCN6D-336" target="qDmlWPMKRpsVleZsCN6D-342">
          <mxGeometry relative="1" as="geometry" />
        </mxCell>
        <mxCell id="qDmlWPMKRpsVleZsCN6D-335" style="edgeStyle=none;orthogonalLoop=1;jettySize=auto;html=1;entryX=0.5;entryY=0;entryDx=0;entryDy=0;strokeColor=#457B9D;fontColor=#1D3557;labelBackgroundColor=#F1FAEE;" edge="1" parent="1" source="qDmlWPMKRpsVleZsCN6D-336" target="qDmlWPMKRpsVleZsCN6D-343">
          <mxGeometry relative="1" as="geometry" />
        </mxCell>
        <mxCell id="qDmlWPMKRpsVleZsCN6D-336" value="26" style="ellipse;whiteSpace=wrap;html=1;aspect=fixed;fillColor=#A8DADC;strokeColor=#457B9D;fontColor=#1D3557;" vertex="1" parent="1">
          <mxGeometry x="1123" y="722" width="20" height="20" as="geometry" />
        </mxCell>
        <mxCell id="qDmlWPMKRpsVleZsCN6D-337" style="edgeStyle=none;orthogonalLoop=1;jettySize=auto;html=1;entryX=0.5;entryY=0;entryDx=0;entryDy=0;strokeColor=#457B9D;fontColor=#1D3557;labelBackgroundColor=#F1FAEE;" edge="1" parent="1" source="qDmlWPMKRpsVleZsCN6D-338" target="qDmlWPMKRpsVleZsCN6D-346">
          <mxGeometry relative="1" as="geometry" />
        </mxCell>
        <mxCell id="qDmlWPMKRpsVleZsCN6D-338" value="36" style="ellipse;whiteSpace=wrap;html=1;aspect=fixed;fillColor=#A8DADC;strokeColor=#457B9D;fontColor=#1D3557;" vertex="1" parent="1">
          <mxGeometry x="1023" y="792" width="20" height="20" as="geometry" />
        </mxCell>
        <mxCell id="qDmlWPMKRpsVleZsCN6D-339" style="edgeStyle=none;orthogonalLoop=1;jettySize=auto;html=1;entryX=0.5;entryY=0;entryDx=0;entryDy=0;strokeColor=#457B9D;fontColor=#1D3557;labelBackgroundColor=#F1FAEE;" edge="1" parent="1" source="qDmlWPMKRpsVleZsCN6D-341" target="qDmlWPMKRpsVleZsCN6D-344">
          <mxGeometry relative="1" as="geometry" />
        </mxCell>
        <mxCell id="qDmlWPMKRpsVleZsCN6D-340" style="edgeStyle=none;orthogonalLoop=1;jettySize=auto;html=1;entryX=0.5;entryY=0;entryDx=0;entryDy=0;strokeColor=#457B9D;fontColor=#1D3557;labelBackgroundColor=#F1FAEE;" edge="1" parent="1" source="qDmlWPMKRpsVleZsCN6D-341" target="qDmlWPMKRpsVleZsCN6D-345">
          <mxGeometry relative="1" as="geometry" />
        </mxCell>
        <mxCell id="qDmlWPMKRpsVleZsCN6D-341" value="25" style="ellipse;whiteSpace=wrap;html=1;aspect=fixed;fillColor=#A8DADC;strokeColor=#457B9D;fontColor=#1D3557;" vertex="1" parent="1">
          <mxGeometry x="923" y="792" width="20" height="20" as="geometry" />
        </mxCell>
        <mxCell id="qDmlWPMKRpsVleZsCN6D-342" value="17" style="ellipse;whiteSpace=wrap;html=1;aspect=fixed;fillColor=#A8DADC;strokeColor=#457B9D;fontColor=#1D3557;" vertex="1" parent="1">
          <mxGeometry x="1093" y="792" width="20" height="20" as="geometry" />
        </mxCell>
        <mxCell id="qDmlWPMKRpsVleZsCN6D-343" value="1" style="ellipse;whiteSpace=wrap;html=1;aspect=fixed;fillColor=#A8DADC;strokeColor=#457B9D;fontColor=#1D3557;" vertex="1" parent="1">
          <mxGeometry x="1173" y="792" width="20" height="20" as="geometry" />
        </mxCell>
        <mxCell id="qDmlWPMKRpsVleZsCN6D-344" value="90" style="ellipse;whiteSpace=wrap;html=1;aspect=fixed;fillColor=#A8DADC;strokeColor=#457B9D;fontColor=#1D3557;" vertex="1" parent="1">
          <mxGeometry x="893" y="862" width="20" height="20" as="geometry" />
        </mxCell>
        <mxCell id="qDmlWPMKRpsVleZsCN6D-345" value="3" style="ellipse;whiteSpace=wrap;html=1;aspect=fixed;fillColor=#A8DADC;strokeColor=#457B9D;fontColor=#1D3557;" vertex="1" parent="1">
          <mxGeometry x="953" y="862" width="20" height="20" as="geometry" />
        </mxCell>
        <mxCell id="qDmlWPMKRpsVleZsCN6D-346" value="19" style="ellipse;whiteSpace=wrap;html=1;aspect=fixed;" vertex="1" parent="1">
          <mxGeometry x="1003" y="862" width="20" height="20" as="geometry" />
        </mxCell>
        <mxCell id="qDmlWPMKRpsVleZsCN6D-347" style="edgeStyle=none;orthogonalLoop=1;jettySize=auto;html=1;entryX=0.5;entryY=0;entryDx=0;entryDy=0;strokeColor=#457B9D;fontColor=#1D3557;labelBackgroundColor=#F1FAEE;" edge="1" parent="1" source="qDmlWPMKRpsVleZsCN6D-349" target="qDmlWPMKRpsVleZsCN6D-355">
          <mxGeometry relative="1" as="geometry" />
        </mxCell>
        <mxCell id="qDmlWPMKRpsVleZsCN6D-348" style="edgeStyle=none;orthogonalLoop=1;jettySize=auto;html=1;exitX=0;exitY=0.5;exitDx=0;exitDy=0;entryX=0.5;entryY=0;entryDx=0;entryDy=0;strokeColor=#457B9D;fontColor=#1D3557;labelBackgroundColor=#F1FAEE;" edge="1" parent="1" source="qDmlWPMKRpsVleZsCN6D-349" target="qDmlWPMKRpsVleZsCN6D-352">
          <mxGeometry relative="1" as="geometry" />
        </mxCell>
        <mxCell id="qDmlWPMKRpsVleZsCN6D-349" value="2" style="ellipse;whiteSpace=wrap;html=1;aspect=fixed;fillColor=#A8DADC;strokeColor=#457B9D;fontColor=#1D3557;" vertex="1" parent="1">
          <mxGeometry x="1050" y="919" width="20" height="20" as="geometry" />
        </mxCell>
        <mxCell id="qDmlWPMKRpsVleZsCN6D-350" style="edgeStyle=none;orthogonalLoop=1;jettySize=auto;html=1;entryX=0.5;entryY=0;entryDx=0;entryDy=0;strokeColor=#457B9D;fontColor=#1D3557;labelBackgroundColor=#F1FAEE;" edge="1" parent="1" source="qDmlWPMKRpsVleZsCN6D-352" target="qDmlWPMKRpsVleZsCN6D-357">
          <mxGeometry relative="1" as="geometry" />
        </mxCell>
        <mxCell id="qDmlWPMKRpsVleZsCN6D-351" style="orthogonalLoop=1;jettySize=auto;html=1;entryX=0.5;entryY=0;entryDx=0;entryDy=0;strokeColor=#457B9D;fontColor=#1D3557;labelBackgroundColor=#F1FAEE;" edge="1" parent="1" source="qDmlWPMKRpsVleZsCN6D-352" target="qDmlWPMKRpsVleZsCN6D-360">
          <mxGeometry relative="1" as="geometry" />
        </mxCell>
        <mxCell id="qDmlWPMKRpsVleZsCN6D-352" value="7" style="ellipse;whiteSpace=wrap;html=1;aspect=fixed;fillColor=#A8DADC;strokeColor=#457B9D;fontColor=#1D3557;" vertex="1" parent="1">
          <mxGeometry x="980" y="989" width="20" height="20" as="geometry" />
        </mxCell>
        <mxCell id="qDmlWPMKRpsVleZsCN6D-353" style="edgeStyle=none;orthogonalLoop=1;jettySize=auto;html=1;entryX=0.5;entryY=0;entryDx=0;entryDy=0;strokeColor=#457B9D;fontColor=#1D3557;labelBackgroundColor=#F1FAEE;" edge="1" parent="1" source="qDmlWPMKRpsVleZsCN6D-355" target="qDmlWPMKRpsVleZsCN6D-361">
          <mxGeometry relative="1" as="geometry" />
        </mxCell>
        <mxCell id="qDmlWPMKRpsVleZsCN6D-354" style="edgeStyle=none;orthogonalLoop=1;jettySize=auto;html=1;entryX=0.5;entryY=0;entryDx=0;entryDy=0;strokeColor=#457B9D;fontColor=#1D3557;labelBackgroundColor=#F1FAEE;" edge="1" parent="1" source="qDmlWPMKRpsVleZsCN6D-355" target="qDmlWPMKRpsVleZsCN6D-362">
          <mxGeometry relative="1" as="geometry" />
        </mxCell>
        <mxCell id="qDmlWPMKRpsVleZsCN6D-355" value="26" style="ellipse;whiteSpace=wrap;html=1;aspect=fixed;fillColor=#A8DADC;strokeColor=#457B9D;fontColor=#1D3557;" vertex="1" parent="1">
          <mxGeometry x="1120" y="989" width="20" height="20" as="geometry" />
        </mxCell>
        <mxCell id="qDmlWPMKRpsVleZsCN6D-356" style="edgeStyle=none;orthogonalLoop=1;jettySize=auto;html=1;entryX=0.5;entryY=0;entryDx=0;entryDy=0;strokeColor=#457B9D;fontColor=#1D3557;labelBackgroundColor=#F1FAEE;" edge="1" parent="1" source="qDmlWPMKRpsVleZsCN6D-357" target="qDmlWPMKRpsVleZsCN6D-365">
          <mxGeometry relative="1" as="geometry" />
        </mxCell>
        <mxCell id="qDmlWPMKRpsVleZsCN6D-357" value="36" style="ellipse;whiteSpace=wrap;html=1;aspect=fixed;fillColor=#A8DADC;strokeColor=#457B9D;fontColor=#1D3557;" vertex="1" parent="1">
          <mxGeometry x="1020" y="1059" width="20" height="20" as="geometry" />
        </mxCell>
        <mxCell id="qDmlWPMKRpsVleZsCN6D-358" style="edgeStyle=none;orthogonalLoop=1;jettySize=auto;html=1;entryX=0.5;entryY=0;entryDx=0;entryDy=0;strokeColor=#457B9D;fontColor=#1D3557;labelBackgroundColor=#F1FAEE;" edge="1" parent="1" source="qDmlWPMKRpsVleZsCN6D-360" target="qDmlWPMKRpsVleZsCN6D-363">
          <mxGeometry relative="1" as="geometry" />
        </mxCell>
        <mxCell id="qDmlWPMKRpsVleZsCN6D-359" style="edgeStyle=none;orthogonalLoop=1;jettySize=auto;html=1;entryX=0.5;entryY=0;entryDx=0;entryDy=0;strokeColor=#457B9D;fontColor=#1D3557;labelBackgroundColor=#F1FAEE;" edge="1" parent="1" source="qDmlWPMKRpsVleZsCN6D-360" target="qDmlWPMKRpsVleZsCN6D-364">
          <mxGeometry relative="1" as="geometry" />
        </mxCell>
        <mxCell id="qDmlWPMKRpsVleZsCN6D-360" value="25" style="ellipse;whiteSpace=wrap;html=1;aspect=fixed;fillColor=#e3c800;strokeColor=#B09500;fontColor=#000000;" vertex="1" parent="1">
          <mxGeometry x="920" y="1059" width="20" height="20" as="geometry" />
        </mxCell>
        <mxCell id="qDmlWPMKRpsVleZsCN6D-361" value="17" style="ellipse;whiteSpace=wrap;html=1;aspect=fixed;fillColor=#A8DADC;strokeColor=#457B9D;fontColor=#1D3557;" vertex="1" parent="1">
          <mxGeometry x="1090" y="1059" width="20" height="20" as="geometry" />
        </mxCell>
        <mxCell id="qDmlWPMKRpsVleZsCN6D-362" value="1" style="ellipse;whiteSpace=wrap;html=1;aspect=fixed;fillColor=#A8DADC;strokeColor=#457B9D;fontColor=#1D3557;" vertex="1" parent="1">
          <mxGeometry x="1170" y="1059" width="20" height="20" as="geometry" />
        </mxCell>
        <mxCell id="qDmlWPMKRpsVleZsCN6D-363" value="90" style="ellipse;whiteSpace=wrap;html=1;aspect=fixed;fillColor=#A8DADC;strokeColor=#457B9D;fontColor=#1D3557;" vertex="1" parent="1">
          <mxGeometry x="890" y="1129" width="20" height="20" as="geometry" />
        </mxCell>
        <mxCell id="qDmlWPMKRpsVleZsCN6D-364" value="3" style="ellipse;whiteSpace=wrap;html=1;aspect=fixed;fillColor=#A8DADC;strokeColor=#457B9D;fontColor=#1D3557;" vertex="1" parent="1">
          <mxGeometry x="950" y="1129" width="20" height="20" as="geometry" />
        </mxCell>
        <mxCell id="qDmlWPMKRpsVleZsCN6D-365" value="19" style="ellipse;whiteSpace=wrap;html=1;aspect=fixed;fontColor=#1D3557;strokeColor=#457B9D;fillColor=#A8DADC;" vertex="1" parent="1">
          <mxGeometry x="1000" y="1129" width="20" height="20" as="geometry" />
        </mxCell>
        <mxCell id="qDmlWPMKRpsVleZsCN6D-367" style="edgeStyle=none;orthogonalLoop=1;jettySize=auto;html=1;entryX=0.5;entryY=0;entryDx=0;entryDy=0;strokeColor=#457B9D;fontColor=#1D3557;labelBackgroundColor=#F1FAEE;" edge="1" parent="1" source="qDmlWPMKRpsVleZsCN6D-369" target="qDmlWPMKRpsVleZsCN6D-375">
          <mxGeometry relative="1" as="geometry" />
        </mxCell>
        <mxCell id="qDmlWPMKRpsVleZsCN6D-368" style="edgeStyle=none;orthogonalLoop=1;jettySize=auto;html=1;exitX=0;exitY=0.5;exitDx=0;exitDy=0;entryX=0.5;entryY=0;entryDx=0;entryDy=0;strokeColor=#457B9D;fontColor=#1D3557;labelBackgroundColor=#F1FAEE;" edge="1" parent="1" source="qDmlWPMKRpsVleZsCN6D-369" target="qDmlWPMKRpsVleZsCN6D-372">
          <mxGeometry relative="1" as="geometry" />
        </mxCell>
        <mxCell id="qDmlWPMKRpsVleZsCN6D-369" value="2" style="ellipse;whiteSpace=wrap;html=1;aspect=fixed;fillColor=#A8DADC;strokeColor=#457B9D;fontColor=#1D3557;" vertex="1" parent="1">
          <mxGeometry x="695" y="921" width="20" height="20" as="geometry" />
        </mxCell>
        <mxCell id="qDmlWPMKRpsVleZsCN6D-370" style="edgeStyle=none;orthogonalLoop=1;jettySize=auto;html=1;entryX=0.5;entryY=0;entryDx=0;entryDy=0;strokeColor=#457B9D;fontColor=#1D3557;labelBackgroundColor=#F1FAEE;" edge="1" parent="1" source="qDmlWPMKRpsVleZsCN6D-372" target="qDmlWPMKRpsVleZsCN6D-377">
          <mxGeometry relative="1" as="geometry" />
        </mxCell>
        <mxCell id="qDmlWPMKRpsVleZsCN6D-371" style="orthogonalLoop=1;jettySize=auto;html=1;entryX=0.5;entryY=0;entryDx=0;entryDy=0;strokeColor=#457B9D;fontColor=#1D3557;labelBackgroundColor=#F1FAEE;" edge="1" parent="1" source="qDmlWPMKRpsVleZsCN6D-372" target="qDmlWPMKRpsVleZsCN6D-380">
          <mxGeometry relative="1" as="geometry" />
        </mxCell>
        <mxCell id="qDmlWPMKRpsVleZsCN6D-372" value="7" style="ellipse;whiteSpace=wrap;html=1;aspect=fixed;fillColor=#A8DADC;strokeColor=#457B9D;fontColor=#1D3557;" vertex="1" parent="1">
          <mxGeometry x="625" y="991" width="20" height="20" as="geometry" />
        </mxCell>
        <mxCell id="qDmlWPMKRpsVleZsCN6D-373" style="edgeStyle=none;orthogonalLoop=1;jettySize=auto;html=1;entryX=0.5;entryY=0;entryDx=0;entryDy=0;strokeColor=#457B9D;fontColor=#1D3557;labelBackgroundColor=#F1FAEE;" edge="1" parent="1" source="qDmlWPMKRpsVleZsCN6D-375" target="qDmlWPMKRpsVleZsCN6D-381">
          <mxGeometry relative="1" as="geometry" />
        </mxCell>
        <mxCell id="qDmlWPMKRpsVleZsCN6D-374" style="edgeStyle=none;orthogonalLoop=1;jettySize=auto;html=1;entryX=0.5;entryY=0;entryDx=0;entryDy=0;strokeColor=#457B9D;fontColor=#1D3557;labelBackgroundColor=#F1FAEE;" edge="1" parent="1" source="qDmlWPMKRpsVleZsCN6D-375" target="qDmlWPMKRpsVleZsCN6D-382">
          <mxGeometry relative="1" as="geometry" />
        </mxCell>
        <mxCell id="qDmlWPMKRpsVleZsCN6D-375" value="26" style="ellipse;whiteSpace=wrap;html=1;aspect=fixed;fillColor=#A8DADC;strokeColor=#457B9D;fontColor=#1D3557;" vertex="1" parent="1">
          <mxGeometry x="765" y="991" width="20" height="20" as="geometry" />
        </mxCell>
        <mxCell id="qDmlWPMKRpsVleZsCN6D-376" style="edgeStyle=none;orthogonalLoop=1;jettySize=auto;html=1;entryX=0.5;entryY=0;entryDx=0;entryDy=0;strokeColor=#457B9D;fontColor=#1D3557;labelBackgroundColor=#F1FAEE;" edge="1" parent="1" source="qDmlWPMKRpsVleZsCN6D-377" target="qDmlWPMKRpsVleZsCN6D-385">
          <mxGeometry relative="1" as="geometry" />
        </mxCell>
        <mxCell id="qDmlWPMKRpsVleZsCN6D-377" value="36" style="ellipse;whiteSpace=wrap;html=1;aspect=fixed;fillColor=#A8DADC;strokeColor=#457B9D;fontColor=#1D3557;" vertex="1" parent="1">
          <mxGeometry x="665" y="1061" width="20" height="20" as="geometry" />
        </mxCell>
        <mxCell id="qDmlWPMKRpsVleZsCN6D-378" style="edgeStyle=none;orthogonalLoop=1;jettySize=auto;html=1;entryX=0.5;entryY=0;entryDx=0;entryDy=0;strokeColor=#457B9D;fontColor=#1D3557;labelBackgroundColor=#F1FAEE;" edge="1" parent="1" source="qDmlWPMKRpsVleZsCN6D-380" target="qDmlWPMKRpsVleZsCN6D-383">
          <mxGeometry relative="1" as="geometry" />
        </mxCell>
        <mxCell id="qDmlWPMKRpsVleZsCN6D-379" style="edgeStyle=none;orthogonalLoop=1;jettySize=auto;html=1;entryX=0.5;entryY=0;entryDx=0;entryDy=0;strokeColor=#457B9D;fontColor=#1D3557;labelBackgroundColor=#F1FAEE;" edge="1" parent="1" source="qDmlWPMKRpsVleZsCN6D-380" target="qDmlWPMKRpsVleZsCN6D-384">
          <mxGeometry relative="1" as="geometry" />
        </mxCell>
        <mxCell id="qDmlWPMKRpsVleZsCN6D-380" value="90" style="ellipse;whiteSpace=wrap;html=1;aspect=fixed;fillColor=#e51400;strokeColor=#B20000;fontColor=#ffffff;" vertex="1" parent="1">
          <mxGeometry x="565" y="1061" width="20" height="20" as="geometry" />
        </mxCell>
        <mxCell id="qDmlWPMKRpsVleZsCN6D-381" value="17" style="ellipse;whiteSpace=wrap;html=1;aspect=fixed;fillColor=#A8DADC;strokeColor=#457B9D;fontColor=#1D3557;" vertex="1" parent="1">
          <mxGeometry x="735" y="1061" width="20" height="20" as="geometry" />
        </mxCell>
        <mxCell id="qDmlWPMKRpsVleZsCN6D-382" value="1" style="ellipse;whiteSpace=wrap;html=1;aspect=fixed;fillColor=#A8DADC;strokeColor=#457B9D;fontColor=#1D3557;" vertex="1" parent="1">
          <mxGeometry x="815" y="1061" width="20" height="20" as="geometry" />
        </mxCell>
        <mxCell id="qDmlWPMKRpsVleZsCN6D-383" value="90" style="ellipse;whiteSpace=wrap;html=1;aspect=fixed;fillColor=#A8DADC;strokeColor=#457B9D;fontColor=#1D3557;" vertex="1" parent="1">
          <mxGeometry x="535" y="1131" width="20" height="20" as="geometry" />
        </mxCell>
        <mxCell id="qDmlWPMKRpsVleZsCN6D-384" value="3" style="ellipse;whiteSpace=wrap;html=1;aspect=fixed;fillColor=#A8DADC;strokeColor=#457B9D;fontColor=#1D3557;" vertex="1" parent="1">
          <mxGeometry x="595" y="1131" width="20" height="20" as="geometry" />
        </mxCell>
        <mxCell id="qDmlWPMKRpsVleZsCN6D-385" value="19" style="ellipse;whiteSpace=wrap;html=1;aspect=fixed;fontColor=#1D3557;strokeColor=#457B9D;fillColor=#A8DADC;" vertex="1" parent="1">
          <mxGeometry x="645" y="1131" width="20" height="20" as="geometry" />
        </mxCell>
        <mxCell id="qDmlWPMKRpsVleZsCN6D-405" style="edgeStyle=none;orthogonalLoop=1;jettySize=auto;html=1;entryX=0.5;entryY=0;entryDx=0;entryDy=0;strokeColor=#457B9D;fontColor=#1D3557;labelBackgroundColor=#F1FAEE;" edge="1" parent="1" source="qDmlWPMKRpsVleZsCN6D-407" target="qDmlWPMKRpsVleZsCN6D-413">
          <mxGeometry relative="1" as="geometry" />
        </mxCell>
        <mxCell id="qDmlWPMKRpsVleZsCN6D-406" style="edgeStyle=none;orthogonalLoop=1;jettySize=auto;html=1;exitX=0;exitY=0.5;exitDx=0;exitDy=0;entryX=0.5;entryY=0;entryDx=0;entryDy=0;strokeColor=#457B9D;fontColor=#1D3557;labelBackgroundColor=#F1FAEE;" edge="1" parent="1" source="qDmlWPMKRpsVleZsCN6D-407" target="qDmlWPMKRpsVleZsCN6D-410">
          <mxGeometry relative="1" as="geometry" />
        </mxCell>
        <mxCell id="qDmlWPMKRpsVleZsCN6D-407" value="2" style="ellipse;whiteSpace=wrap;html=1;aspect=fixed;fillColor=#A8DADC;strokeColor=#457B9D;fontColor=#1D3557;" vertex="1" parent="1">
          <mxGeometry x="327" y="921" width="20" height="20" as="geometry" />
        </mxCell>
        <mxCell id="qDmlWPMKRpsVleZsCN6D-408" style="edgeStyle=none;orthogonalLoop=1;jettySize=auto;html=1;entryX=0.5;entryY=0;entryDx=0;entryDy=0;strokeColor=#457B9D;fontColor=#1D3557;labelBackgroundColor=#F1FAEE;" edge="1" parent="1" source="qDmlWPMKRpsVleZsCN6D-410" target="qDmlWPMKRpsVleZsCN6D-415">
          <mxGeometry relative="1" as="geometry" />
        </mxCell>
        <mxCell id="qDmlWPMKRpsVleZsCN6D-409" style="orthogonalLoop=1;jettySize=auto;html=1;entryX=0.5;entryY=0;entryDx=0;entryDy=0;strokeColor=#457B9D;fontColor=#1D3557;labelBackgroundColor=#F1FAEE;" edge="1" parent="1" source="qDmlWPMKRpsVleZsCN6D-410" target="qDmlWPMKRpsVleZsCN6D-418">
          <mxGeometry relative="1" as="geometry" />
        </mxCell>
        <mxCell id="qDmlWPMKRpsVleZsCN6D-410" value="7" style="ellipse;whiteSpace=wrap;html=1;aspect=fixed;fillColor=#A8DADC;strokeColor=#457B9D;fontColor=#1D3557;" vertex="1" parent="1">
          <mxGeometry x="257" y="991" width="20" height="20" as="geometry" />
        </mxCell>
        <mxCell id="qDmlWPMKRpsVleZsCN6D-411" style="edgeStyle=none;orthogonalLoop=1;jettySize=auto;html=1;entryX=0.5;entryY=0;entryDx=0;entryDy=0;strokeColor=#457B9D;fontColor=#1D3557;labelBackgroundColor=#F1FAEE;" edge="1" parent="1" source="qDmlWPMKRpsVleZsCN6D-413" target="qDmlWPMKRpsVleZsCN6D-419">
          <mxGeometry relative="1" as="geometry" />
        </mxCell>
        <mxCell id="qDmlWPMKRpsVleZsCN6D-412" style="edgeStyle=none;orthogonalLoop=1;jettySize=auto;html=1;entryX=0.5;entryY=0;entryDx=0;entryDy=0;strokeColor=#457B9D;fontColor=#1D3557;labelBackgroundColor=#F1FAEE;" edge="1" parent="1" source="qDmlWPMKRpsVleZsCN6D-413" target="qDmlWPMKRpsVleZsCN6D-420">
          <mxGeometry relative="1" as="geometry" />
        </mxCell>
        <mxCell id="qDmlWPMKRpsVleZsCN6D-413" value="26" style="ellipse;whiteSpace=wrap;html=1;aspect=fixed;fillColor=#A8DADC;strokeColor=#457B9D;fontColor=#1D3557;" vertex="1" parent="1">
          <mxGeometry x="397" y="991" width="20" height="20" as="geometry" />
        </mxCell>
        <mxCell id="qDmlWPMKRpsVleZsCN6D-414" style="edgeStyle=none;orthogonalLoop=1;jettySize=auto;html=1;entryX=0.5;entryY=0;entryDx=0;entryDy=0;strokeColor=#457B9D;fontColor=#1D3557;labelBackgroundColor=#F1FAEE;" edge="1" parent="1" source="qDmlWPMKRpsVleZsCN6D-415" target="qDmlWPMKRpsVleZsCN6D-423">
          <mxGeometry relative="1" as="geometry" />
        </mxCell>
        <mxCell id="qDmlWPMKRpsVleZsCN6D-415" value="36" style="ellipse;whiteSpace=wrap;html=1;aspect=fixed;fillColor=#A8DADC;strokeColor=#457B9D;fontColor=#1D3557;" vertex="1" parent="1">
          <mxGeometry x="297" y="1061" width="20" height="20" as="geometry" />
        </mxCell>
        <mxCell id="qDmlWPMKRpsVleZsCN6D-416" style="edgeStyle=none;orthogonalLoop=1;jettySize=auto;html=1;entryX=0.5;entryY=0;entryDx=0;entryDy=0;strokeColor=#457B9D;fontColor=#1D3557;labelBackgroundColor=#F1FAEE;" edge="1" parent="1" source="qDmlWPMKRpsVleZsCN6D-418" target="qDmlWPMKRpsVleZsCN6D-421">
          <mxGeometry relative="1" as="geometry" />
        </mxCell>
        <mxCell id="qDmlWPMKRpsVleZsCN6D-417" style="edgeStyle=none;orthogonalLoop=1;jettySize=auto;html=1;entryX=0.5;entryY=0;entryDx=0;entryDy=0;strokeColor=#457B9D;fontColor=#1D3557;labelBackgroundColor=#F1FAEE;" edge="1" parent="1" source="qDmlWPMKRpsVleZsCN6D-418" target="qDmlWPMKRpsVleZsCN6D-422">
          <mxGeometry relative="1" as="geometry" />
        </mxCell>
        <mxCell id="qDmlWPMKRpsVleZsCN6D-418" value="90" style="ellipse;whiteSpace=wrap;html=1;aspect=fixed;fillColor=#A8DADC;strokeColor=#457B9D;fontColor=#1D3557;" vertex="1" parent="1">
          <mxGeometry x="197" y="1061" width="20" height="20" as="geometry" />
        </mxCell>
        <mxCell id="qDmlWPMKRpsVleZsCN6D-419" value="17" style="ellipse;whiteSpace=wrap;html=1;aspect=fixed;fillColor=#A8DADC;strokeColor=#457B9D;fontColor=#1D3557;" vertex="1" parent="1">
          <mxGeometry x="367" y="1061" width="20" height="20" as="geometry" />
        </mxCell>
        <mxCell id="qDmlWPMKRpsVleZsCN6D-420" value="1" style="ellipse;whiteSpace=wrap;html=1;aspect=fixed;fillColor=#A8DADC;strokeColor=#457B9D;fontColor=#1D3557;" vertex="1" parent="1">
          <mxGeometry x="447" y="1061" width="20" height="20" as="geometry" />
        </mxCell>
        <mxCell id="qDmlWPMKRpsVleZsCN6D-421" value="25" style="ellipse;whiteSpace=wrap;html=1;aspect=fixed;" vertex="1" parent="1">
          <mxGeometry x="167" y="1131" width="20" height="20" as="geometry" />
        </mxCell>
        <mxCell id="qDmlWPMKRpsVleZsCN6D-422" value="3" style="ellipse;whiteSpace=wrap;html=1;aspect=fixed;fillColor=#A8DADC;strokeColor=#457B9D;fontColor=#1D3557;" vertex="1" parent="1">
          <mxGeometry x="227" y="1131" width="20" height="20" as="geometry" />
        </mxCell>
        <mxCell id="qDmlWPMKRpsVleZsCN6D-423" value="19" style="ellipse;whiteSpace=wrap;html=1;aspect=fixed;fontColor=#1D3557;strokeColor=#457B9D;fillColor=#A8DADC;" vertex="1" parent="1">
          <mxGeometry x="277" y="1131" width="20" height="20" as="geometry" />
        </mxCell>
        <mxCell id="qDmlWPMKRpsVleZsCN6D-424" style="edgeStyle=none;orthogonalLoop=1;jettySize=auto;html=1;entryX=0.5;entryY=0;entryDx=0;entryDy=0;strokeColor=#457B9D;fontColor=#1D3557;labelBackgroundColor=#F1FAEE;" edge="1" parent="1" source="qDmlWPMKRpsVleZsCN6D-426" target="qDmlWPMKRpsVleZsCN6D-432">
          <mxGeometry relative="1" as="geometry" />
        </mxCell>
        <mxCell id="qDmlWPMKRpsVleZsCN6D-425" style="edgeStyle=none;orthogonalLoop=1;jettySize=auto;html=1;exitX=0;exitY=0.5;exitDx=0;exitDy=0;entryX=0.5;entryY=0;entryDx=0;entryDy=0;strokeColor=#457B9D;fontColor=#1D3557;labelBackgroundColor=#F1FAEE;" edge="1" parent="1" source="qDmlWPMKRpsVleZsCN6D-426" target="qDmlWPMKRpsVleZsCN6D-429">
          <mxGeometry relative="1" as="geometry" />
        </mxCell>
        <mxCell id="qDmlWPMKRpsVleZsCN6D-426" value="2" style="ellipse;whiteSpace=wrap;html=1;aspect=fixed;fillColor=#A8DADC;strokeColor=#457B9D;fontColor=#1D3557;" vertex="1" parent="1">
          <mxGeometry x="337" y="1199" width="20" height="20" as="geometry" />
        </mxCell>
        <mxCell id="qDmlWPMKRpsVleZsCN6D-427" style="edgeStyle=none;orthogonalLoop=1;jettySize=auto;html=1;entryX=0.5;entryY=0;entryDx=0;entryDy=0;strokeColor=#457B9D;fontColor=#1D3557;labelBackgroundColor=#F1FAEE;" edge="1" parent="1" source="qDmlWPMKRpsVleZsCN6D-429" target="qDmlWPMKRpsVleZsCN6D-434">
          <mxGeometry relative="1" as="geometry" />
        </mxCell>
        <mxCell id="qDmlWPMKRpsVleZsCN6D-428" style="orthogonalLoop=1;jettySize=auto;html=1;entryX=0.5;entryY=0;entryDx=0;entryDy=0;strokeColor=#457B9D;fontColor=#1D3557;labelBackgroundColor=#F1FAEE;" edge="1" parent="1" source="qDmlWPMKRpsVleZsCN6D-429" target="qDmlWPMKRpsVleZsCN6D-437">
          <mxGeometry relative="1" as="geometry" />
        </mxCell>
        <mxCell id="qDmlWPMKRpsVleZsCN6D-429" value="7" style="ellipse;whiteSpace=wrap;html=1;aspect=fixed;fillColor=#A8DADC;strokeColor=#457B9D;fontColor=#1D3557;" vertex="1" parent="1">
          <mxGeometry x="267" y="1269" width="20" height="20" as="geometry" />
        </mxCell>
        <mxCell id="qDmlWPMKRpsVleZsCN6D-430" style="edgeStyle=none;orthogonalLoop=1;jettySize=auto;html=1;entryX=0.5;entryY=0;entryDx=0;entryDy=0;strokeColor=#457B9D;fontColor=#1D3557;labelBackgroundColor=#F1FAEE;" edge="1" parent="1" source="qDmlWPMKRpsVleZsCN6D-432" target="qDmlWPMKRpsVleZsCN6D-438">
          <mxGeometry relative="1" as="geometry" />
        </mxCell>
        <mxCell id="qDmlWPMKRpsVleZsCN6D-431" style="edgeStyle=none;orthogonalLoop=1;jettySize=auto;html=1;entryX=0.5;entryY=0;entryDx=0;entryDy=0;strokeColor=#457B9D;fontColor=#1D3557;labelBackgroundColor=#F1FAEE;" edge="1" parent="1" source="qDmlWPMKRpsVleZsCN6D-432" target="qDmlWPMKRpsVleZsCN6D-439">
          <mxGeometry relative="1" as="geometry" />
        </mxCell>
        <mxCell id="qDmlWPMKRpsVleZsCN6D-432" value="26" style="ellipse;whiteSpace=wrap;html=1;aspect=fixed;fillColor=#e3c800;strokeColor=#B09500;fontColor=#000000;" vertex="1" parent="1">
          <mxGeometry x="407" y="1269" width="20" height="20" as="geometry" />
        </mxCell>
        <mxCell id="qDmlWPMKRpsVleZsCN6D-433" style="edgeStyle=none;orthogonalLoop=1;jettySize=auto;html=1;entryX=0.5;entryY=0;entryDx=0;entryDy=0;strokeColor=#457B9D;fontColor=#1D3557;labelBackgroundColor=#F1FAEE;" edge="1" parent="1" source="qDmlWPMKRpsVleZsCN6D-434" target="qDmlWPMKRpsVleZsCN6D-442">
          <mxGeometry relative="1" as="geometry" />
        </mxCell>
        <mxCell id="qDmlWPMKRpsVleZsCN6D-434" value="36" style="ellipse;whiteSpace=wrap;html=1;aspect=fixed;fillColor=#A8DADC;strokeColor=#457B9D;fontColor=#1D3557;" vertex="1" parent="1">
          <mxGeometry x="307" y="1339" width="20" height="20" as="geometry" />
        </mxCell>
        <mxCell id="qDmlWPMKRpsVleZsCN6D-435" style="edgeStyle=none;orthogonalLoop=1;jettySize=auto;html=1;entryX=0.5;entryY=0;entryDx=0;entryDy=0;strokeColor=#457B9D;fontColor=#1D3557;labelBackgroundColor=#F1FAEE;" edge="1" parent="1" source="qDmlWPMKRpsVleZsCN6D-437" target="qDmlWPMKRpsVleZsCN6D-440">
          <mxGeometry relative="1" as="geometry" />
        </mxCell>
        <mxCell id="qDmlWPMKRpsVleZsCN6D-436" style="edgeStyle=none;orthogonalLoop=1;jettySize=auto;html=1;entryX=0.5;entryY=0;entryDx=0;entryDy=0;strokeColor=#457B9D;fontColor=#1D3557;labelBackgroundColor=#F1FAEE;" edge="1" parent="1" source="qDmlWPMKRpsVleZsCN6D-437" target="qDmlWPMKRpsVleZsCN6D-441">
          <mxGeometry relative="1" as="geometry" />
        </mxCell>
        <mxCell id="qDmlWPMKRpsVleZsCN6D-437" value="90" style="ellipse;whiteSpace=wrap;html=1;aspect=fixed;fillColor=#A8DADC;strokeColor=#457B9D;fontColor=#1D3557;" vertex="1" parent="1">
          <mxGeometry x="207" y="1339" width="20" height="20" as="geometry" />
        </mxCell>
        <mxCell id="qDmlWPMKRpsVleZsCN6D-438" value="17" style="ellipse;whiteSpace=wrap;html=1;aspect=fixed;fillColor=#A8DADC;strokeColor=#457B9D;fontColor=#1D3557;" vertex="1" parent="1">
          <mxGeometry x="377" y="1339" width="20" height="20" as="geometry" />
        </mxCell>
        <mxCell id="qDmlWPMKRpsVleZsCN6D-439" value="1" style="ellipse;whiteSpace=wrap;html=1;aspect=fixed;fillColor=#A8DADC;strokeColor=#457B9D;fontColor=#1D3557;" vertex="1" parent="1">
          <mxGeometry x="457" y="1339" width="20" height="20" as="geometry" />
        </mxCell>
        <mxCell id="qDmlWPMKRpsVleZsCN6D-440" value="25" style="ellipse;whiteSpace=wrap;html=1;aspect=fixed;fillColor=#A8DADC;strokeColor=#457B9D;fontColor=#1D3557;" vertex="1" parent="1">
          <mxGeometry x="177" y="1409" width="20" height="20" as="geometry" />
        </mxCell>
        <mxCell id="qDmlWPMKRpsVleZsCN6D-441" value="3" style="ellipse;whiteSpace=wrap;html=1;aspect=fixed;fillColor=#A8DADC;strokeColor=#457B9D;fontColor=#1D3557;" vertex="1" parent="1">
          <mxGeometry x="237" y="1409" width="20" height="20" as="geometry" />
        </mxCell>
        <mxCell id="qDmlWPMKRpsVleZsCN6D-442" value="19" style="ellipse;whiteSpace=wrap;html=1;aspect=fixed;fontColor=#1D3557;strokeColor=#457B9D;fillColor=#A8DADC;" vertex="1" parent="1">
          <mxGeometry x="287" y="1409" width="20" height="20" as="geometry" />
        </mxCell>
        <mxCell id="qDmlWPMKRpsVleZsCN6D-444" style="edgeStyle=none;orthogonalLoop=1;jettySize=auto;html=1;entryX=0.5;entryY=0;entryDx=0;entryDy=0;strokeColor=#457B9D;fontColor=#1D3557;labelBackgroundColor=#F1FAEE;" edge="1" parent="1" source="qDmlWPMKRpsVleZsCN6D-446" target="qDmlWPMKRpsVleZsCN6D-452">
          <mxGeometry relative="1" as="geometry" />
        </mxCell>
        <mxCell id="qDmlWPMKRpsVleZsCN6D-445" style="edgeStyle=none;orthogonalLoop=1;jettySize=auto;html=1;exitX=0;exitY=0.5;exitDx=0;exitDy=0;entryX=0.5;entryY=0;entryDx=0;entryDy=0;strokeColor=#457B9D;fontColor=#1D3557;labelBackgroundColor=#F1FAEE;" edge="1" parent="1" source="qDmlWPMKRpsVleZsCN6D-446" target="qDmlWPMKRpsVleZsCN6D-449">
          <mxGeometry relative="1" as="geometry" />
        </mxCell>
        <mxCell id="qDmlWPMKRpsVleZsCN6D-446" value="2" style="ellipse;whiteSpace=wrap;html=1;aspect=fixed;fillColor=#A8DADC;strokeColor=#457B9D;fontColor=#1D3557;" vertex="1" parent="1">
          <mxGeometry x="698" y="1201" width="20" height="20" as="geometry" />
        </mxCell>
        <mxCell id="qDmlWPMKRpsVleZsCN6D-447" style="edgeStyle=none;orthogonalLoop=1;jettySize=auto;html=1;entryX=0.5;entryY=0;entryDx=0;entryDy=0;strokeColor=#457B9D;fontColor=#1D3557;labelBackgroundColor=#F1FAEE;" edge="1" parent="1" source="qDmlWPMKRpsVleZsCN6D-449" target="qDmlWPMKRpsVleZsCN6D-454">
          <mxGeometry relative="1" as="geometry" />
        </mxCell>
        <mxCell id="qDmlWPMKRpsVleZsCN6D-448" style="orthogonalLoop=1;jettySize=auto;html=1;entryX=0.5;entryY=0;entryDx=0;entryDy=0;strokeColor=#457B9D;fontColor=#1D3557;labelBackgroundColor=#F1FAEE;" edge="1" parent="1" source="qDmlWPMKRpsVleZsCN6D-449" target="qDmlWPMKRpsVleZsCN6D-457">
          <mxGeometry relative="1" as="geometry" />
        </mxCell>
        <mxCell id="qDmlWPMKRpsVleZsCN6D-449" value="7" style="ellipse;whiteSpace=wrap;html=1;aspect=fixed;fillColor=#A8DADC;strokeColor=#457B9D;fontColor=#1D3557;" vertex="1" parent="1">
          <mxGeometry x="628" y="1271" width="20" height="20" as="geometry" />
        </mxCell>
        <mxCell id="qDmlWPMKRpsVleZsCN6D-450" style="edgeStyle=none;orthogonalLoop=1;jettySize=auto;html=1;entryX=0.5;entryY=0;entryDx=0;entryDy=0;strokeColor=#457B9D;fontColor=#1D3557;labelBackgroundColor=#F1FAEE;" edge="1" parent="1" source="qDmlWPMKRpsVleZsCN6D-452" target="qDmlWPMKRpsVleZsCN6D-458">
          <mxGeometry relative="1" as="geometry" />
        </mxCell>
        <mxCell id="qDmlWPMKRpsVleZsCN6D-451" style="edgeStyle=none;orthogonalLoop=1;jettySize=auto;html=1;entryX=0.5;entryY=0;entryDx=0;entryDy=0;strokeColor=#457B9D;fontColor=#1D3557;labelBackgroundColor=#F1FAEE;" edge="1" parent="1" source="qDmlWPMKRpsVleZsCN6D-452" target="qDmlWPMKRpsVleZsCN6D-459">
          <mxGeometry relative="1" as="geometry" />
        </mxCell>
        <mxCell id="qDmlWPMKRpsVleZsCN6D-452" value="17" style="ellipse;whiteSpace=wrap;html=1;aspect=fixed;fillColor=#e51400;strokeColor=#B20000;fontColor=#ffffff;" vertex="1" parent="1">
          <mxGeometry x="768" y="1271" width="20" height="20" as="geometry" />
        </mxCell>
        <mxCell id="qDmlWPMKRpsVleZsCN6D-453" style="edgeStyle=none;orthogonalLoop=1;jettySize=auto;html=1;entryX=0.5;entryY=0;entryDx=0;entryDy=0;strokeColor=#457B9D;fontColor=#1D3557;labelBackgroundColor=#F1FAEE;" edge="1" parent="1" source="qDmlWPMKRpsVleZsCN6D-454" target="qDmlWPMKRpsVleZsCN6D-462">
          <mxGeometry relative="1" as="geometry" />
        </mxCell>
        <mxCell id="qDmlWPMKRpsVleZsCN6D-454" value="36" style="ellipse;whiteSpace=wrap;html=1;aspect=fixed;fillColor=#A8DADC;strokeColor=#457B9D;fontColor=#1D3557;" vertex="1" parent="1">
          <mxGeometry x="668" y="1341" width="20" height="20" as="geometry" />
        </mxCell>
        <mxCell id="qDmlWPMKRpsVleZsCN6D-455" style="edgeStyle=none;orthogonalLoop=1;jettySize=auto;html=1;entryX=0.5;entryY=0;entryDx=0;entryDy=0;strokeColor=#457B9D;fontColor=#1D3557;labelBackgroundColor=#F1FAEE;" edge="1" parent="1" source="qDmlWPMKRpsVleZsCN6D-457" target="qDmlWPMKRpsVleZsCN6D-460">
          <mxGeometry relative="1" as="geometry" />
        </mxCell>
        <mxCell id="qDmlWPMKRpsVleZsCN6D-456" style="edgeStyle=none;orthogonalLoop=1;jettySize=auto;html=1;entryX=0.5;entryY=0;entryDx=0;entryDy=0;strokeColor=#457B9D;fontColor=#1D3557;labelBackgroundColor=#F1FAEE;" edge="1" parent="1" source="qDmlWPMKRpsVleZsCN6D-457" target="qDmlWPMKRpsVleZsCN6D-461">
          <mxGeometry relative="1" as="geometry" />
        </mxCell>
        <mxCell id="qDmlWPMKRpsVleZsCN6D-457" value="90" style="ellipse;whiteSpace=wrap;html=1;aspect=fixed;fillColor=#A8DADC;strokeColor=#457B9D;fontColor=#1D3557;" vertex="1" parent="1">
          <mxGeometry x="568" y="1341" width="20" height="20" as="geometry" />
        </mxCell>
        <mxCell id="qDmlWPMKRpsVleZsCN6D-458" value="17" style="ellipse;whiteSpace=wrap;html=1;aspect=fixed;fillColor=#A8DADC;strokeColor=#457B9D;fontColor=#1D3557;" vertex="1" parent="1">
          <mxGeometry x="738" y="1341" width="20" height="20" as="geometry" />
        </mxCell>
        <mxCell id="qDmlWPMKRpsVleZsCN6D-459" value="1" style="ellipse;whiteSpace=wrap;html=1;aspect=fixed;fillColor=#A8DADC;strokeColor=#457B9D;fontColor=#1D3557;" vertex="1" parent="1">
          <mxGeometry x="818" y="1341" width="20" height="20" as="geometry" />
        </mxCell>
        <mxCell id="qDmlWPMKRpsVleZsCN6D-460" value="25" style="ellipse;whiteSpace=wrap;html=1;aspect=fixed;fillColor=#A8DADC;strokeColor=#457B9D;fontColor=#1D3557;" vertex="1" parent="1">
          <mxGeometry x="538" y="1411" width="20" height="20" as="geometry" />
        </mxCell>
        <mxCell id="qDmlWPMKRpsVleZsCN6D-461" value="3" style="ellipse;whiteSpace=wrap;html=1;aspect=fixed;fillColor=#A8DADC;strokeColor=#457B9D;fontColor=#1D3557;" vertex="1" parent="1">
          <mxGeometry x="598" y="1411" width="20" height="20" as="geometry" />
        </mxCell>
        <mxCell id="qDmlWPMKRpsVleZsCN6D-462" value="19" style="ellipse;whiteSpace=wrap;html=1;aspect=fixed;fontColor=#1D3557;strokeColor=#457B9D;fillColor=#A8DADC;" vertex="1" parent="1">
          <mxGeometry x="648" y="1411" width="20" height="20" as="geometry" />
        </mxCell>
        <mxCell id="qDmlWPMKRpsVleZsCN6D-464" style="edgeStyle=none;orthogonalLoop=1;jettySize=auto;html=1;entryX=0.5;entryY=0;entryDx=0;entryDy=0;strokeColor=#457B9D;fontColor=#1D3557;labelBackgroundColor=#F1FAEE;" edge="1" parent="1" source="qDmlWPMKRpsVleZsCN6D-466" target="qDmlWPMKRpsVleZsCN6D-472">
          <mxGeometry relative="1" as="geometry" />
        </mxCell>
        <mxCell id="qDmlWPMKRpsVleZsCN6D-465" style="edgeStyle=none;orthogonalLoop=1;jettySize=auto;html=1;exitX=0;exitY=0.5;exitDx=0;exitDy=0;entryX=0.5;entryY=0;entryDx=0;entryDy=0;strokeColor=#457B9D;fontColor=#1D3557;labelBackgroundColor=#F1FAEE;" edge="1" parent="1" source="qDmlWPMKRpsVleZsCN6D-466" target="qDmlWPMKRpsVleZsCN6D-469">
          <mxGeometry relative="1" as="geometry" />
        </mxCell>
        <mxCell id="qDmlWPMKRpsVleZsCN6D-466" value="2" style="ellipse;whiteSpace=wrap;html=1;aspect=fixed;fillColor=#A8DADC;strokeColor=#457B9D;fontColor=#1D3557;" vertex="1" parent="1">
          <mxGeometry x="1055" y="1201" width="20" height="20" as="geometry" />
        </mxCell>
        <mxCell id="qDmlWPMKRpsVleZsCN6D-467" style="edgeStyle=none;orthogonalLoop=1;jettySize=auto;html=1;entryX=0.5;entryY=0;entryDx=0;entryDy=0;strokeColor=#457B9D;fontColor=#1D3557;labelBackgroundColor=#F1FAEE;" edge="1" parent="1" source="qDmlWPMKRpsVleZsCN6D-469" target="qDmlWPMKRpsVleZsCN6D-474">
          <mxGeometry relative="1" as="geometry" />
        </mxCell>
        <mxCell id="qDmlWPMKRpsVleZsCN6D-468" style="orthogonalLoop=1;jettySize=auto;html=1;entryX=0.5;entryY=0;entryDx=0;entryDy=0;strokeColor=#457B9D;fontColor=#1D3557;labelBackgroundColor=#F1FAEE;" edge="1" parent="1" source="qDmlWPMKRpsVleZsCN6D-469" target="qDmlWPMKRpsVleZsCN6D-477">
          <mxGeometry relative="1" as="geometry" />
        </mxCell>
        <mxCell id="qDmlWPMKRpsVleZsCN6D-469" value="7" style="ellipse;whiteSpace=wrap;html=1;aspect=fixed;fillColor=#A8DADC;strokeColor=#457B9D;fontColor=#1D3557;" vertex="1" parent="1">
          <mxGeometry x="985" y="1271" width="20" height="20" as="geometry" />
        </mxCell>
        <mxCell id="qDmlWPMKRpsVleZsCN6D-470" style="edgeStyle=none;orthogonalLoop=1;jettySize=auto;html=1;entryX=0.5;entryY=0;entryDx=0;entryDy=0;strokeColor=#457B9D;fontColor=#1D3557;labelBackgroundColor=#F1FAEE;" edge="1" parent="1" source="qDmlWPMKRpsVleZsCN6D-472" target="qDmlWPMKRpsVleZsCN6D-478">
          <mxGeometry relative="1" as="geometry" />
        </mxCell>
        <mxCell id="qDmlWPMKRpsVleZsCN6D-471" style="edgeStyle=none;orthogonalLoop=1;jettySize=auto;html=1;entryX=0.5;entryY=0;entryDx=0;entryDy=0;strokeColor=#457B9D;fontColor=#1D3557;labelBackgroundColor=#F1FAEE;" edge="1" parent="1" source="qDmlWPMKRpsVleZsCN6D-472" target="qDmlWPMKRpsVleZsCN6D-479">
          <mxGeometry relative="1" as="geometry" />
        </mxCell>
        <mxCell id="qDmlWPMKRpsVleZsCN6D-472" value="26" style="ellipse;whiteSpace=wrap;html=1;aspect=fixed;" vertex="1" parent="1">
          <mxGeometry x="1125" y="1271" width="20" height="20" as="geometry" />
        </mxCell>
        <mxCell id="qDmlWPMKRpsVleZsCN6D-473" style="edgeStyle=none;orthogonalLoop=1;jettySize=auto;html=1;entryX=0.5;entryY=0;entryDx=0;entryDy=0;strokeColor=#457B9D;fontColor=#1D3557;labelBackgroundColor=#F1FAEE;" edge="1" parent="1" source="qDmlWPMKRpsVleZsCN6D-474" target="qDmlWPMKRpsVleZsCN6D-482">
          <mxGeometry relative="1" as="geometry" />
        </mxCell>
        <mxCell id="qDmlWPMKRpsVleZsCN6D-474" value="36" style="ellipse;whiteSpace=wrap;html=1;aspect=fixed;fillColor=#A8DADC;strokeColor=#457B9D;fontColor=#1D3557;" vertex="1" parent="1">
          <mxGeometry x="1025" y="1341" width="20" height="20" as="geometry" />
        </mxCell>
        <mxCell id="qDmlWPMKRpsVleZsCN6D-475" style="edgeStyle=none;orthogonalLoop=1;jettySize=auto;html=1;entryX=0.5;entryY=0;entryDx=0;entryDy=0;strokeColor=#457B9D;fontColor=#1D3557;labelBackgroundColor=#F1FAEE;" edge="1" parent="1" source="qDmlWPMKRpsVleZsCN6D-477" target="qDmlWPMKRpsVleZsCN6D-480">
          <mxGeometry relative="1" as="geometry" />
        </mxCell>
        <mxCell id="qDmlWPMKRpsVleZsCN6D-476" style="edgeStyle=none;orthogonalLoop=1;jettySize=auto;html=1;entryX=0.5;entryY=0;entryDx=0;entryDy=0;strokeColor=#457B9D;fontColor=#1D3557;labelBackgroundColor=#F1FAEE;" edge="1" parent="1" source="qDmlWPMKRpsVleZsCN6D-477" target="qDmlWPMKRpsVleZsCN6D-481">
          <mxGeometry relative="1" as="geometry" />
        </mxCell>
        <mxCell id="qDmlWPMKRpsVleZsCN6D-477" value="90" style="ellipse;whiteSpace=wrap;html=1;aspect=fixed;fillColor=#A8DADC;strokeColor=#457B9D;fontColor=#1D3557;" vertex="1" parent="1">
          <mxGeometry x="925" y="1341" width="20" height="20" as="geometry" />
        </mxCell>
        <mxCell id="qDmlWPMKRpsVleZsCN6D-478" value="17" style="ellipse;whiteSpace=wrap;html=1;aspect=fixed;" vertex="1" parent="1">
          <mxGeometry x="1095" y="1341" width="20" height="20" as="geometry" />
        </mxCell>
        <mxCell id="qDmlWPMKRpsVleZsCN6D-479" value="1" style="ellipse;whiteSpace=wrap;html=1;aspect=fixed;fillColor=#A8DADC;strokeColor=#457B9D;fontColor=#1D3557;" vertex="1" parent="1">
          <mxGeometry x="1175" y="1341" width="20" height="20" as="geometry" />
        </mxCell>
        <mxCell id="qDmlWPMKRpsVleZsCN6D-480" value="25" style="ellipse;whiteSpace=wrap;html=1;aspect=fixed;fillColor=#A8DADC;strokeColor=#457B9D;fontColor=#1D3557;" vertex="1" parent="1">
          <mxGeometry x="895" y="1411" width="20" height="20" as="geometry" />
        </mxCell>
        <mxCell id="qDmlWPMKRpsVleZsCN6D-481" value="3" style="ellipse;whiteSpace=wrap;html=1;aspect=fixed;fillColor=#A8DADC;strokeColor=#457B9D;fontColor=#1D3557;" vertex="1" parent="1">
          <mxGeometry x="955" y="1411" width="20" height="20" as="geometry" />
        </mxCell>
        <mxCell id="qDmlWPMKRpsVleZsCN6D-482" value="19" style="ellipse;whiteSpace=wrap;html=1;aspect=fixed;fontColor=#1D3557;strokeColor=#457B9D;fillColor=#A8DADC;" vertex="1" parent="1">
          <mxGeometry x="1005" y="1411" width="20" height="20" as="geometry" />
        </mxCell>
        <mxCell id="qDmlWPMKRpsVleZsCN6D-483" style="edgeStyle=none;orthogonalLoop=1;jettySize=auto;html=1;entryX=0.5;entryY=0;entryDx=0;entryDy=0;strokeColor=#457B9D;fontColor=#1D3557;labelBackgroundColor=#F1FAEE;" edge="1" parent="1" source="qDmlWPMKRpsVleZsCN6D-485" target="qDmlWPMKRpsVleZsCN6D-491">
          <mxGeometry relative="1" as="geometry" />
        </mxCell>
        <mxCell id="qDmlWPMKRpsVleZsCN6D-484" style="edgeStyle=none;orthogonalLoop=1;jettySize=auto;html=1;exitX=0;exitY=0.5;exitDx=0;exitDy=0;entryX=0.5;entryY=0;entryDx=0;entryDy=0;strokeColor=#457B9D;fontColor=#1D3557;labelBackgroundColor=#F1FAEE;" edge="1" parent="1" source="qDmlWPMKRpsVleZsCN6D-485" target="qDmlWPMKRpsVleZsCN6D-488">
          <mxGeometry relative="1" as="geometry" />
        </mxCell>
        <mxCell id="qDmlWPMKRpsVleZsCN6D-485" value="2" style="ellipse;whiteSpace=wrap;html=1;aspect=fixed;fillColor=#A8DADC;strokeColor=#457B9D;fontColor=#1D3557;" vertex="1" parent="1">
          <mxGeometry x="1054" y="1442" width="20" height="20" as="geometry" />
        </mxCell>
        <mxCell id="qDmlWPMKRpsVleZsCN6D-486" style="edgeStyle=none;orthogonalLoop=1;jettySize=auto;html=1;entryX=0.5;entryY=0;entryDx=0;entryDy=0;strokeColor=#457B9D;fontColor=#1D3557;labelBackgroundColor=#F1FAEE;" edge="1" parent="1" source="qDmlWPMKRpsVleZsCN6D-488" target="qDmlWPMKRpsVleZsCN6D-493">
          <mxGeometry relative="1" as="geometry" />
        </mxCell>
        <mxCell id="qDmlWPMKRpsVleZsCN6D-487" style="orthogonalLoop=1;jettySize=auto;html=1;entryX=0.5;entryY=0;entryDx=0;entryDy=0;strokeColor=#457B9D;fontColor=#1D3557;labelBackgroundColor=#F1FAEE;" edge="1" parent="1" source="qDmlWPMKRpsVleZsCN6D-488" target="qDmlWPMKRpsVleZsCN6D-496">
          <mxGeometry relative="1" as="geometry" />
        </mxCell>
        <mxCell id="qDmlWPMKRpsVleZsCN6D-488" value="7" style="ellipse;whiteSpace=wrap;html=1;aspect=fixed;fillColor=#e3c800;strokeColor=#B09500;fontColor=#000000;" vertex="1" parent="1">
          <mxGeometry x="984" y="1512" width="20" height="20" as="geometry" />
        </mxCell>
        <mxCell id="qDmlWPMKRpsVleZsCN6D-489" style="edgeStyle=none;orthogonalLoop=1;jettySize=auto;html=1;entryX=0.5;entryY=0;entryDx=0;entryDy=0;strokeColor=#457B9D;fontColor=#1D3557;labelBackgroundColor=#F1FAEE;" edge="1" parent="1" source="qDmlWPMKRpsVleZsCN6D-491" target="qDmlWPMKRpsVleZsCN6D-497">
          <mxGeometry relative="1" as="geometry" />
        </mxCell>
        <mxCell id="qDmlWPMKRpsVleZsCN6D-490" style="edgeStyle=none;orthogonalLoop=1;jettySize=auto;html=1;entryX=0.5;entryY=0;entryDx=0;entryDy=0;strokeColor=#457B9D;fontColor=#1D3557;labelBackgroundColor=#F1FAEE;" edge="1" parent="1" source="qDmlWPMKRpsVleZsCN6D-491" target="qDmlWPMKRpsVleZsCN6D-498">
          <mxGeometry relative="1" as="geometry" />
        </mxCell>
        <mxCell id="qDmlWPMKRpsVleZsCN6D-491" value="26" style="ellipse;whiteSpace=wrap;html=1;aspect=fixed;fillColor=#A8DADC;strokeColor=#457B9D;fontColor=#1D3557;" vertex="1" parent="1">
          <mxGeometry x="1124" y="1512" width="20" height="20" as="geometry" />
        </mxCell>
        <mxCell id="qDmlWPMKRpsVleZsCN6D-492" style="edgeStyle=none;orthogonalLoop=1;jettySize=auto;html=1;entryX=0.5;entryY=0;entryDx=0;entryDy=0;strokeColor=#457B9D;fontColor=#1D3557;labelBackgroundColor=#F1FAEE;" edge="1" parent="1" source="qDmlWPMKRpsVleZsCN6D-493" target="qDmlWPMKRpsVleZsCN6D-501">
          <mxGeometry relative="1" as="geometry" />
        </mxCell>
        <mxCell id="qDmlWPMKRpsVleZsCN6D-493" value="36" style="ellipse;whiteSpace=wrap;html=1;aspect=fixed;fillColor=#A8DADC;strokeColor=#457B9D;fontColor=#1D3557;" vertex="1" parent="1">
          <mxGeometry x="1024" y="1582" width="20" height="20" as="geometry" />
        </mxCell>
        <mxCell id="qDmlWPMKRpsVleZsCN6D-494" style="edgeStyle=none;orthogonalLoop=1;jettySize=auto;html=1;entryX=0.5;entryY=0;entryDx=0;entryDy=0;strokeColor=#457B9D;fontColor=#1D3557;labelBackgroundColor=#F1FAEE;" edge="1" parent="1" source="qDmlWPMKRpsVleZsCN6D-496" target="qDmlWPMKRpsVleZsCN6D-499">
          <mxGeometry relative="1" as="geometry" />
        </mxCell>
        <mxCell id="qDmlWPMKRpsVleZsCN6D-495" style="edgeStyle=none;orthogonalLoop=1;jettySize=auto;html=1;entryX=0.5;entryY=0;entryDx=0;entryDy=0;strokeColor=#457B9D;fontColor=#1D3557;labelBackgroundColor=#F1FAEE;" edge="1" parent="1" source="qDmlWPMKRpsVleZsCN6D-496" target="qDmlWPMKRpsVleZsCN6D-500">
          <mxGeometry relative="1" as="geometry" />
        </mxCell>
        <mxCell id="qDmlWPMKRpsVleZsCN6D-496" value="90" style="ellipse;whiteSpace=wrap;html=1;aspect=fixed;fillColor=#A8DADC;strokeColor=#457B9D;fontColor=#1D3557;" vertex="1" parent="1">
          <mxGeometry x="924" y="1582" width="20" height="20" as="geometry" />
        </mxCell>
        <mxCell id="qDmlWPMKRpsVleZsCN6D-497" value="17" style="ellipse;whiteSpace=wrap;html=1;aspect=fixed;fillColor=#A8DADC;strokeColor=#457B9D;fontColor=#1D3557;" vertex="1" parent="1">
          <mxGeometry x="1094" y="1582" width="20" height="20" as="geometry" />
        </mxCell>
        <mxCell id="qDmlWPMKRpsVleZsCN6D-498" value="1" style="ellipse;whiteSpace=wrap;html=1;aspect=fixed;fillColor=#A8DADC;strokeColor=#457B9D;fontColor=#1D3557;" vertex="1" parent="1">
          <mxGeometry x="1174" y="1582" width="20" height="20" as="geometry" />
        </mxCell>
        <mxCell id="qDmlWPMKRpsVleZsCN6D-499" value="25" style="ellipse;whiteSpace=wrap;html=1;aspect=fixed;fillColor=#A8DADC;strokeColor=#457B9D;fontColor=#1D3557;" vertex="1" parent="1">
          <mxGeometry x="894" y="1652" width="20" height="20" as="geometry" />
        </mxCell>
        <mxCell id="qDmlWPMKRpsVleZsCN6D-500" value="3" style="ellipse;whiteSpace=wrap;html=1;aspect=fixed;fillColor=#A8DADC;strokeColor=#457B9D;fontColor=#1D3557;" vertex="1" parent="1">
          <mxGeometry x="954" y="1652" width="20" height="20" as="geometry" />
        </mxCell>
        <mxCell id="qDmlWPMKRpsVleZsCN6D-501" value="19" style="ellipse;whiteSpace=wrap;html=1;aspect=fixed;fontColor=#1D3557;strokeColor=#457B9D;fillColor=#A8DADC;" vertex="1" parent="1">
          <mxGeometry x="1004" y="1652" width="20" height="20" as="geometry" />
        </mxCell>
        <mxCell id="qDmlWPMKRpsVleZsCN6D-502" style="edgeStyle=none;orthogonalLoop=1;jettySize=auto;html=1;entryX=0.5;entryY=0;entryDx=0;entryDy=0;strokeColor=#457B9D;fontColor=#1D3557;labelBackgroundColor=#F1FAEE;" edge="1" parent="1" source="qDmlWPMKRpsVleZsCN6D-504" target="qDmlWPMKRpsVleZsCN6D-510">
          <mxGeometry relative="1" as="geometry" />
        </mxCell>
        <mxCell id="qDmlWPMKRpsVleZsCN6D-503" style="edgeStyle=none;orthogonalLoop=1;jettySize=auto;html=1;exitX=0;exitY=0.5;exitDx=0;exitDy=0;entryX=0.5;entryY=0;entryDx=0;entryDy=0;strokeColor=#457B9D;fontColor=#1D3557;labelBackgroundColor=#F1FAEE;" edge="1" parent="1" source="qDmlWPMKRpsVleZsCN6D-504" target="qDmlWPMKRpsVleZsCN6D-507">
          <mxGeometry relative="1" as="geometry" />
        </mxCell>
        <mxCell id="qDmlWPMKRpsVleZsCN6D-504" value="2" style="ellipse;whiteSpace=wrap;html=1;aspect=fixed;fillColor=#A8DADC;strokeColor=#457B9D;fontColor=#1D3557;" vertex="1" parent="1">
          <mxGeometry x="693" y="1452" width="20" height="20" as="geometry" />
        </mxCell>
        <mxCell id="qDmlWPMKRpsVleZsCN6D-505" style="edgeStyle=none;orthogonalLoop=1;jettySize=auto;html=1;entryX=0.5;entryY=0;entryDx=0;entryDy=0;strokeColor=#457B9D;fontColor=#1D3557;labelBackgroundColor=#F1FAEE;" edge="1" parent="1" source="qDmlWPMKRpsVleZsCN6D-507" target="qDmlWPMKRpsVleZsCN6D-512">
          <mxGeometry relative="1" as="geometry" />
        </mxCell>
        <mxCell id="qDmlWPMKRpsVleZsCN6D-506" style="orthogonalLoop=1;jettySize=auto;html=1;entryX=0.5;entryY=0;entryDx=0;entryDy=0;strokeColor=#457B9D;fontColor=#1D3557;labelBackgroundColor=#F1FAEE;" edge="1" parent="1" source="qDmlWPMKRpsVleZsCN6D-507" target="qDmlWPMKRpsVleZsCN6D-515">
          <mxGeometry relative="1" as="geometry" />
        </mxCell>
        <mxCell id="qDmlWPMKRpsVleZsCN6D-507" value="90" style="ellipse;whiteSpace=wrap;html=1;aspect=fixed;fillColor=#e51400;strokeColor=#B20000;fontColor=#ffffff;" vertex="1" parent="1">
          <mxGeometry x="623" y="1522" width="20" height="20" as="geometry" />
        </mxCell>
        <mxCell id="qDmlWPMKRpsVleZsCN6D-508" style="edgeStyle=none;orthogonalLoop=1;jettySize=auto;html=1;entryX=0.5;entryY=0;entryDx=0;entryDy=0;strokeColor=#457B9D;fontColor=#1D3557;labelBackgroundColor=#F1FAEE;" edge="1" parent="1" source="qDmlWPMKRpsVleZsCN6D-510" target="qDmlWPMKRpsVleZsCN6D-516">
          <mxGeometry relative="1" as="geometry" />
        </mxCell>
        <mxCell id="qDmlWPMKRpsVleZsCN6D-509" style="edgeStyle=none;orthogonalLoop=1;jettySize=auto;html=1;entryX=0.5;entryY=0;entryDx=0;entryDy=0;strokeColor=#457B9D;fontColor=#1D3557;labelBackgroundColor=#F1FAEE;" edge="1" parent="1" source="qDmlWPMKRpsVleZsCN6D-510" target="qDmlWPMKRpsVleZsCN6D-517">
          <mxGeometry relative="1" as="geometry" />
        </mxCell>
        <mxCell id="qDmlWPMKRpsVleZsCN6D-510" value="26" style="ellipse;whiteSpace=wrap;html=1;aspect=fixed;fillColor=#A8DADC;strokeColor=#457B9D;fontColor=#1D3557;" vertex="1" parent="1">
          <mxGeometry x="763" y="1522" width="20" height="20" as="geometry" />
        </mxCell>
        <mxCell id="qDmlWPMKRpsVleZsCN6D-511" style="edgeStyle=none;orthogonalLoop=1;jettySize=auto;html=1;entryX=0.5;entryY=0;entryDx=0;entryDy=0;strokeColor=#457B9D;fontColor=#1D3557;labelBackgroundColor=#F1FAEE;" edge="1" parent="1" source="qDmlWPMKRpsVleZsCN6D-512" target="qDmlWPMKRpsVleZsCN6D-520">
          <mxGeometry relative="1" as="geometry" />
        </mxCell>
        <mxCell id="qDmlWPMKRpsVleZsCN6D-512" value="36" style="ellipse;whiteSpace=wrap;html=1;aspect=fixed;fillColor=#A8DADC;strokeColor=#457B9D;fontColor=#1D3557;" vertex="1" parent="1">
          <mxGeometry x="663" y="1592" width="20" height="20" as="geometry" />
        </mxCell>
        <mxCell id="qDmlWPMKRpsVleZsCN6D-513" style="edgeStyle=none;orthogonalLoop=1;jettySize=auto;html=1;entryX=0.5;entryY=0;entryDx=0;entryDy=0;strokeColor=#457B9D;fontColor=#1D3557;labelBackgroundColor=#F1FAEE;" edge="1" parent="1" source="qDmlWPMKRpsVleZsCN6D-515" target="qDmlWPMKRpsVleZsCN6D-518">
          <mxGeometry relative="1" as="geometry" />
        </mxCell>
        <mxCell id="qDmlWPMKRpsVleZsCN6D-514" style="edgeStyle=none;orthogonalLoop=1;jettySize=auto;html=1;entryX=0.5;entryY=0;entryDx=0;entryDy=0;strokeColor=#457B9D;fontColor=#1D3557;labelBackgroundColor=#F1FAEE;" edge="1" parent="1" source="qDmlWPMKRpsVleZsCN6D-515" target="qDmlWPMKRpsVleZsCN6D-519">
          <mxGeometry relative="1" as="geometry" />
        </mxCell>
        <mxCell id="qDmlWPMKRpsVleZsCN6D-515" value="25" style="ellipse;whiteSpace=wrap;html=1;aspect=fixed;fillColor=#e51400;strokeColor=#B20000;fontColor=#ffffff;" vertex="1" parent="1">
          <mxGeometry x="563" y="1592" width="20" height="20" as="geometry" />
        </mxCell>
        <mxCell id="qDmlWPMKRpsVleZsCN6D-516" value="17" style="ellipse;whiteSpace=wrap;html=1;aspect=fixed;fillColor=#A8DADC;strokeColor=#457B9D;fontColor=#1D3557;" vertex="1" parent="1">
          <mxGeometry x="733" y="1592" width="20" height="20" as="geometry" />
        </mxCell>
        <mxCell id="qDmlWPMKRpsVleZsCN6D-517" value="1" style="ellipse;whiteSpace=wrap;html=1;aspect=fixed;fillColor=#A8DADC;strokeColor=#457B9D;fontColor=#1D3557;" vertex="1" parent="1">
          <mxGeometry x="813" y="1592" width="20" height="20" as="geometry" />
        </mxCell>
        <mxCell id="qDmlWPMKRpsVleZsCN6D-518" value="25" style="ellipse;whiteSpace=wrap;html=1;aspect=fixed;fillColor=#A8DADC;strokeColor=#457B9D;fontColor=#1D3557;" vertex="1" parent="1">
          <mxGeometry x="533" y="1662" width="20" height="20" as="geometry" />
        </mxCell>
        <mxCell id="qDmlWPMKRpsVleZsCN6D-519" value="3" style="ellipse;whiteSpace=wrap;html=1;aspect=fixed;fillColor=#A8DADC;strokeColor=#457B9D;fontColor=#1D3557;" vertex="1" parent="1">
          <mxGeometry x="593" y="1662" width="20" height="20" as="geometry" />
        </mxCell>
        <mxCell id="qDmlWPMKRpsVleZsCN6D-520" value="19" style="ellipse;whiteSpace=wrap;html=1;aspect=fixed;fontColor=#1D3557;strokeColor=#457B9D;fillColor=#A8DADC;" vertex="1" parent="1">
          <mxGeometry x="643" y="1662" width="20" height="20" as="geometry" />
        </mxCell>
        <mxCell id="qDmlWPMKRpsVleZsCN6D-522" style="edgeStyle=none;orthogonalLoop=1;jettySize=auto;html=1;entryX=0.5;entryY=0;entryDx=0;entryDy=0;strokeColor=#457B9D;fontColor=#1D3557;labelBackgroundColor=#F1FAEE;" edge="1" parent="1" source="qDmlWPMKRpsVleZsCN6D-524" target="qDmlWPMKRpsVleZsCN6D-530">
          <mxGeometry relative="1" as="geometry" />
        </mxCell>
        <mxCell id="qDmlWPMKRpsVleZsCN6D-523" style="edgeStyle=none;orthogonalLoop=1;jettySize=auto;html=1;exitX=0;exitY=0.5;exitDx=0;exitDy=0;entryX=0.5;entryY=0;entryDx=0;entryDy=0;strokeColor=#457B9D;fontColor=#1D3557;labelBackgroundColor=#F1FAEE;" edge="1" parent="1" source="qDmlWPMKRpsVleZsCN6D-524" target="qDmlWPMKRpsVleZsCN6D-527">
          <mxGeometry relative="1" as="geometry" />
        </mxCell>
        <mxCell id="qDmlWPMKRpsVleZsCN6D-524" value="2" style="ellipse;whiteSpace=wrap;html=1;aspect=fixed;fillColor=#A8DADC;strokeColor=#457B9D;fontColor=#1D3557;" vertex="1" parent="1">
          <mxGeometry x="331" y="1462" width="20" height="20" as="geometry" />
        </mxCell>
        <mxCell id="qDmlWPMKRpsVleZsCN6D-525" style="edgeStyle=none;orthogonalLoop=1;jettySize=auto;html=1;entryX=0.5;entryY=0;entryDx=0;entryDy=0;strokeColor=#457B9D;fontColor=#1D3557;labelBackgroundColor=#F1FAEE;" edge="1" parent="1" source="qDmlWPMKRpsVleZsCN6D-527" target="qDmlWPMKRpsVleZsCN6D-532">
          <mxGeometry relative="1" as="geometry" />
        </mxCell>
        <mxCell id="qDmlWPMKRpsVleZsCN6D-526" style="orthogonalLoop=1;jettySize=auto;html=1;entryX=0.5;entryY=0;entryDx=0;entryDy=0;strokeColor=#457B9D;fontColor=#1D3557;labelBackgroundColor=#F1FAEE;" edge="1" parent="1" source="qDmlWPMKRpsVleZsCN6D-527" target="qDmlWPMKRpsVleZsCN6D-535">
          <mxGeometry relative="1" as="geometry" />
        </mxCell>
        <mxCell id="qDmlWPMKRpsVleZsCN6D-527" value="90" style="ellipse;whiteSpace=wrap;html=1;aspect=fixed;fillColor=#A8DADC;strokeColor=#457B9D;fontColor=#1D3557;" vertex="1" parent="1">
          <mxGeometry x="261" y="1532" width="20" height="20" as="geometry" />
        </mxCell>
        <mxCell id="qDmlWPMKRpsVleZsCN6D-528" style="edgeStyle=none;orthogonalLoop=1;jettySize=auto;html=1;entryX=0.5;entryY=0;entryDx=0;entryDy=0;strokeColor=#457B9D;fontColor=#1D3557;labelBackgroundColor=#F1FAEE;" edge="1" parent="1" source="qDmlWPMKRpsVleZsCN6D-530" target="qDmlWPMKRpsVleZsCN6D-536">
          <mxGeometry relative="1" as="geometry" />
        </mxCell>
        <mxCell id="qDmlWPMKRpsVleZsCN6D-529" style="edgeStyle=none;orthogonalLoop=1;jettySize=auto;html=1;entryX=0.5;entryY=0;entryDx=0;entryDy=0;strokeColor=#457B9D;fontColor=#1D3557;labelBackgroundColor=#F1FAEE;" edge="1" parent="1" source="qDmlWPMKRpsVleZsCN6D-530" target="qDmlWPMKRpsVleZsCN6D-537">
          <mxGeometry relative="1" as="geometry" />
        </mxCell>
        <mxCell id="qDmlWPMKRpsVleZsCN6D-530" value="26" style="ellipse;whiteSpace=wrap;html=1;aspect=fixed;fillColor=#A8DADC;strokeColor=#457B9D;fontColor=#1D3557;" vertex="1" parent="1">
          <mxGeometry x="401" y="1532" width="20" height="20" as="geometry" />
        </mxCell>
        <mxCell id="qDmlWPMKRpsVleZsCN6D-531" style="edgeStyle=none;orthogonalLoop=1;jettySize=auto;html=1;entryX=0.5;entryY=0;entryDx=0;entryDy=0;strokeColor=#457B9D;fontColor=#1D3557;labelBackgroundColor=#F1FAEE;" edge="1" parent="1" source="qDmlWPMKRpsVleZsCN6D-532" target="qDmlWPMKRpsVleZsCN6D-540">
          <mxGeometry relative="1" as="geometry" />
        </mxCell>
        <mxCell id="qDmlWPMKRpsVleZsCN6D-532" value="36" style="ellipse;whiteSpace=wrap;html=1;aspect=fixed;fillColor=#A8DADC;strokeColor=#457B9D;fontColor=#1D3557;" vertex="1" parent="1">
          <mxGeometry x="301" y="1602" width="20" height="20" as="geometry" />
        </mxCell>
        <mxCell id="qDmlWPMKRpsVleZsCN6D-533" style="edgeStyle=none;orthogonalLoop=1;jettySize=auto;html=1;entryX=0.5;entryY=0;entryDx=0;entryDy=0;strokeColor=#457B9D;fontColor=#1D3557;labelBackgroundColor=#F1FAEE;" edge="1" parent="1" source="qDmlWPMKRpsVleZsCN6D-535" target="qDmlWPMKRpsVleZsCN6D-538">
          <mxGeometry relative="1" as="geometry" />
        </mxCell>
        <mxCell id="qDmlWPMKRpsVleZsCN6D-534" style="edgeStyle=none;orthogonalLoop=1;jettySize=auto;html=1;entryX=0.5;entryY=0;entryDx=0;entryDy=0;strokeColor=#457B9D;fontColor=#1D3557;labelBackgroundColor=#F1FAEE;" edge="1" parent="1" source="qDmlWPMKRpsVleZsCN6D-535" target="qDmlWPMKRpsVleZsCN6D-539">
          <mxGeometry relative="1" as="geometry" />
        </mxCell>
        <mxCell id="qDmlWPMKRpsVleZsCN6D-535" value="25" style="ellipse;whiteSpace=wrap;html=1;aspect=fixed;fillColor=#A8DADC;strokeColor=#457B9D;fontColor=#1D3557;" vertex="1" parent="1">
          <mxGeometry x="201" y="1602" width="20" height="20" as="geometry" />
        </mxCell>
        <mxCell id="qDmlWPMKRpsVleZsCN6D-536" value="17" style="ellipse;whiteSpace=wrap;html=1;aspect=fixed;fillColor=#A8DADC;strokeColor=#457B9D;fontColor=#1D3557;" vertex="1" parent="1">
          <mxGeometry x="371" y="1602" width="20" height="20" as="geometry" />
        </mxCell>
        <mxCell id="qDmlWPMKRpsVleZsCN6D-537" value="1" style="ellipse;whiteSpace=wrap;html=1;aspect=fixed;fillColor=#A8DADC;strokeColor=#457B9D;fontColor=#1D3557;" vertex="1" parent="1">
          <mxGeometry x="451" y="1602" width="20" height="20" as="geometry" />
        </mxCell>
        <mxCell id="qDmlWPMKRpsVleZsCN6D-538" value="7" style="ellipse;whiteSpace=wrap;html=1;aspect=fixed;" vertex="1" parent="1">
          <mxGeometry x="171" y="1672" width="20" height="20" as="geometry" />
        </mxCell>
        <mxCell id="qDmlWPMKRpsVleZsCN6D-539" value="3" style="ellipse;whiteSpace=wrap;html=1;aspect=fixed;fillColor=#A8DADC;strokeColor=#457B9D;fontColor=#1D3557;" vertex="1" parent="1">
          <mxGeometry x="231" y="1672" width="20" height="20" as="geometry" />
        </mxCell>
        <mxCell id="qDmlWPMKRpsVleZsCN6D-540" value="19" style="ellipse;whiteSpace=wrap;html=1;aspect=fixed;fontColor=#1D3557;strokeColor=#457B9D;fillColor=#A8DADC;" vertex="1" parent="1">
          <mxGeometry x="281" y="1672" width="20" height="20" as="geometry" />
        </mxCell>
        <mxCell id="qDmlWPMKRpsVleZsCN6D-541" style="edgeStyle=none;orthogonalLoop=1;jettySize=auto;html=1;entryX=0.5;entryY=0;entryDx=0;entryDy=0;strokeColor=#457B9D;fontColor=#1D3557;labelBackgroundColor=#F1FAEE;" edge="1" parent="1" source="qDmlWPMKRpsVleZsCN6D-543" target="qDmlWPMKRpsVleZsCN6D-549">
          <mxGeometry relative="1" as="geometry" />
        </mxCell>
        <mxCell id="qDmlWPMKRpsVleZsCN6D-542" style="edgeStyle=none;orthogonalLoop=1;jettySize=auto;html=1;exitX=0;exitY=0.5;exitDx=0;exitDy=0;entryX=0.5;entryY=0;entryDx=0;entryDy=0;strokeColor=#457B9D;fontColor=#1D3557;labelBackgroundColor=#F1FAEE;" edge="1" parent="1" source="qDmlWPMKRpsVleZsCN6D-543" target="qDmlWPMKRpsVleZsCN6D-546">
          <mxGeometry relative="1" as="geometry" />
        </mxCell>
        <mxCell id="qDmlWPMKRpsVleZsCN6D-543" value="2" style="ellipse;whiteSpace=wrap;html=1;aspect=fixed;fillColor=#e3c800;strokeColor=#B09500;fontColor=#000000;" vertex="1" parent="1">
          <mxGeometry x="332" y="1716" width="20" height="20" as="geometry" />
        </mxCell>
        <mxCell id="qDmlWPMKRpsVleZsCN6D-544" style="edgeStyle=none;orthogonalLoop=1;jettySize=auto;html=1;entryX=0.5;entryY=0;entryDx=0;entryDy=0;strokeColor=#457B9D;fontColor=#1D3557;labelBackgroundColor=#F1FAEE;" edge="1" parent="1" source="qDmlWPMKRpsVleZsCN6D-546" target="qDmlWPMKRpsVleZsCN6D-551">
          <mxGeometry relative="1" as="geometry" />
        </mxCell>
        <mxCell id="qDmlWPMKRpsVleZsCN6D-545" style="orthogonalLoop=1;jettySize=auto;html=1;entryX=0.5;entryY=0;entryDx=0;entryDy=0;strokeColor=#457B9D;fontColor=#1D3557;labelBackgroundColor=#F1FAEE;" edge="1" parent="1" source="qDmlWPMKRpsVleZsCN6D-546" target="qDmlWPMKRpsVleZsCN6D-554">
          <mxGeometry relative="1" as="geometry" />
        </mxCell>
        <mxCell id="qDmlWPMKRpsVleZsCN6D-546" value="90" style="ellipse;whiteSpace=wrap;html=1;aspect=fixed;fillColor=#A8DADC;strokeColor=#457B9D;fontColor=#1D3557;" vertex="1" parent="1">
          <mxGeometry x="262" y="1786" width="20" height="20" as="geometry" />
        </mxCell>
        <mxCell id="qDmlWPMKRpsVleZsCN6D-547" style="edgeStyle=none;orthogonalLoop=1;jettySize=auto;html=1;entryX=0.5;entryY=0;entryDx=0;entryDy=0;strokeColor=#457B9D;fontColor=#1D3557;labelBackgroundColor=#F1FAEE;" edge="1" parent="1" source="qDmlWPMKRpsVleZsCN6D-549" target="qDmlWPMKRpsVleZsCN6D-555">
          <mxGeometry relative="1" as="geometry" />
        </mxCell>
        <mxCell id="qDmlWPMKRpsVleZsCN6D-548" style="edgeStyle=none;orthogonalLoop=1;jettySize=auto;html=1;entryX=0.5;entryY=0;entryDx=0;entryDy=0;strokeColor=#457B9D;fontColor=#1D3557;labelBackgroundColor=#F1FAEE;" edge="1" parent="1" source="qDmlWPMKRpsVleZsCN6D-549" target="qDmlWPMKRpsVleZsCN6D-556">
          <mxGeometry relative="1" as="geometry" />
        </mxCell>
        <mxCell id="qDmlWPMKRpsVleZsCN6D-549" value="26" style="ellipse;whiteSpace=wrap;html=1;aspect=fixed;fillColor=#A8DADC;strokeColor=#457B9D;fontColor=#1D3557;" vertex="1" parent="1">
          <mxGeometry x="402" y="1786" width="20" height="20" as="geometry" />
        </mxCell>
        <mxCell id="qDmlWPMKRpsVleZsCN6D-550" style="edgeStyle=none;orthogonalLoop=1;jettySize=auto;html=1;entryX=0.5;entryY=0;entryDx=0;entryDy=0;strokeColor=#457B9D;fontColor=#1D3557;labelBackgroundColor=#F1FAEE;" edge="1" parent="1" source="qDmlWPMKRpsVleZsCN6D-551" target="qDmlWPMKRpsVleZsCN6D-559">
          <mxGeometry relative="1" as="geometry" />
        </mxCell>
        <mxCell id="qDmlWPMKRpsVleZsCN6D-551" value="36" style="ellipse;whiteSpace=wrap;html=1;aspect=fixed;fillColor=#A8DADC;strokeColor=#457B9D;fontColor=#1D3557;" vertex="1" parent="1">
          <mxGeometry x="302" y="1856" width="20" height="20" as="geometry" />
        </mxCell>
        <mxCell id="qDmlWPMKRpsVleZsCN6D-552" style="edgeStyle=none;orthogonalLoop=1;jettySize=auto;html=1;entryX=0.5;entryY=0;entryDx=0;entryDy=0;strokeColor=#457B9D;fontColor=#1D3557;labelBackgroundColor=#F1FAEE;" edge="1" parent="1" source="qDmlWPMKRpsVleZsCN6D-554" target="qDmlWPMKRpsVleZsCN6D-557">
          <mxGeometry relative="1" as="geometry" />
        </mxCell>
        <mxCell id="qDmlWPMKRpsVleZsCN6D-553" style="edgeStyle=none;orthogonalLoop=1;jettySize=auto;html=1;entryX=0.5;entryY=0;entryDx=0;entryDy=0;strokeColor=#457B9D;fontColor=#1D3557;labelBackgroundColor=#F1FAEE;" edge="1" parent="1" source="qDmlWPMKRpsVleZsCN6D-554" target="qDmlWPMKRpsVleZsCN6D-558">
          <mxGeometry relative="1" as="geometry" />
        </mxCell>
        <mxCell id="qDmlWPMKRpsVleZsCN6D-554" value="25" style="ellipse;whiteSpace=wrap;html=1;aspect=fixed;fillColor=#A8DADC;strokeColor=#457B9D;fontColor=#1D3557;" vertex="1" parent="1">
          <mxGeometry x="202" y="1856" width="20" height="20" as="geometry" />
        </mxCell>
        <mxCell id="qDmlWPMKRpsVleZsCN6D-555" value="17" style="ellipse;whiteSpace=wrap;html=1;aspect=fixed;fillColor=#A8DADC;strokeColor=#457B9D;fontColor=#1D3557;" vertex="1" parent="1">
          <mxGeometry x="372" y="1856" width="20" height="20" as="geometry" />
        </mxCell>
        <mxCell id="qDmlWPMKRpsVleZsCN6D-556" value="1" style="ellipse;whiteSpace=wrap;html=1;aspect=fixed;fillColor=#A8DADC;strokeColor=#457B9D;fontColor=#1D3557;" vertex="1" parent="1">
          <mxGeometry x="452" y="1856" width="20" height="20" as="geometry" />
        </mxCell>
        <mxCell id="qDmlWPMKRpsVleZsCN6D-557" value="7" style="ellipse;whiteSpace=wrap;html=1;aspect=fixed;fillColor=#A8DADC;strokeColor=#457B9D;fontColor=#1D3557;" vertex="1" parent="1">
          <mxGeometry x="172" y="1926" width="20" height="20" as="geometry" />
        </mxCell>
        <mxCell id="qDmlWPMKRpsVleZsCN6D-558" value="3" style="ellipse;whiteSpace=wrap;html=1;aspect=fixed;fillColor=#A8DADC;strokeColor=#457B9D;fontColor=#1D3557;" vertex="1" parent="1">
          <mxGeometry x="232" y="1926" width="20" height="20" as="geometry" />
        </mxCell>
        <mxCell id="qDmlWPMKRpsVleZsCN6D-559" value="19" style="ellipse;whiteSpace=wrap;html=1;aspect=fixed;fontColor=#1D3557;strokeColor=#457B9D;fillColor=#A8DADC;" vertex="1" parent="1">
          <mxGeometry x="282" y="1926" width="20" height="20" as="geometry" />
        </mxCell>
        <mxCell id="qDmlWPMKRpsVleZsCN6D-560" style="edgeStyle=none;orthogonalLoop=1;jettySize=auto;html=1;entryX=0.5;entryY=0;entryDx=0;entryDy=0;strokeColor=#457B9D;fontColor=#1D3557;labelBackgroundColor=#F1FAEE;" edge="1" parent="1" source="qDmlWPMKRpsVleZsCN6D-562" target="qDmlWPMKRpsVleZsCN6D-568">
          <mxGeometry relative="1" as="geometry" />
        </mxCell>
        <mxCell id="qDmlWPMKRpsVleZsCN6D-561" style="edgeStyle=none;orthogonalLoop=1;jettySize=auto;html=1;exitX=0;exitY=0.5;exitDx=0;exitDy=0;entryX=0.5;entryY=0;entryDx=0;entryDy=0;strokeColor=#457B9D;fontColor=#1D3557;labelBackgroundColor=#F1FAEE;" edge="1" parent="1" source="qDmlWPMKRpsVleZsCN6D-562" target="qDmlWPMKRpsVleZsCN6D-565">
          <mxGeometry relative="1" as="geometry" />
        </mxCell>
        <mxCell id="qDmlWPMKRpsVleZsCN6D-562" value="90" style="ellipse;whiteSpace=wrap;html=1;aspect=fixed;fillColor=#e51400;strokeColor=#B20000;fontColor=#ffffff;" vertex="1" parent="1">
          <mxGeometry x="693" y="1714" width="20" height="20" as="geometry" />
        </mxCell>
        <mxCell id="qDmlWPMKRpsVleZsCN6D-563" style="edgeStyle=none;orthogonalLoop=1;jettySize=auto;html=1;entryX=0.5;entryY=0;entryDx=0;entryDy=0;strokeColor=#457B9D;fontColor=#1D3557;labelBackgroundColor=#F1FAEE;" edge="1" parent="1" source="qDmlWPMKRpsVleZsCN6D-565" target="qDmlWPMKRpsVleZsCN6D-570">
          <mxGeometry relative="1" as="geometry" />
        </mxCell>
        <mxCell id="qDmlWPMKRpsVleZsCN6D-564" style="orthogonalLoop=1;jettySize=auto;html=1;entryX=0.5;entryY=0;entryDx=0;entryDy=0;strokeColor=#457B9D;fontColor=#1D3557;labelBackgroundColor=#F1FAEE;" edge="1" parent="1" source="qDmlWPMKRpsVleZsCN6D-565" target="qDmlWPMKRpsVleZsCN6D-573">
          <mxGeometry relative="1" as="geometry" />
        </mxCell>
        <mxCell id="qDmlWPMKRpsVleZsCN6D-565" value="36" style="ellipse;whiteSpace=wrap;html=1;aspect=fixed;fillColor=#e51400;strokeColor=#B20000;fontColor=#ffffff;" vertex="1" parent="1">
          <mxGeometry x="623" y="1784" width="20" height="20" as="geometry" />
        </mxCell>
        <mxCell id="qDmlWPMKRpsVleZsCN6D-566" style="edgeStyle=none;orthogonalLoop=1;jettySize=auto;html=1;entryX=0.5;entryY=0;entryDx=0;entryDy=0;strokeColor=#457B9D;fontColor=#1D3557;labelBackgroundColor=#F1FAEE;" edge="1" parent="1" source="qDmlWPMKRpsVleZsCN6D-568" target="qDmlWPMKRpsVleZsCN6D-574">
          <mxGeometry relative="1" as="geometry" />
        </mxCell>
        <mxCell id="qDmlWPMKRpsVleZsCN6D-567" style="edgeStyle=none;orthogonalLoop=1;jettySize=auto;html=1;entryX=0.5;entryY=0;entryDx=0;entryDy=0;strokeColor=#457B9D;fontColor=#1D3557;labelBackgroundColor=#F1FAEE;" edge="1" parent="1" source="qDmlWPMKRpsVleZsCN6D-568" target="qDmlWPMKRpsVleZsCN6D-575">
          <mxGeometry relative="1" as="geometry" />
        </mxCell>
        <mxCell id="qDmlWPMKRpsVleZsCN6D-568" value="26" style="ellipse;whiteSpace=wrap;html=1;aspect=fixed;fillColor=#A8DADC;strokeColor=#457B9D;fontColor=#1D3557;" vertex="1" parent="1">
          <mxGeometry x="763" y="1784" width="20" height="20" as="geometry" />
        </mxCell>
        <mxCell id="qDmlWPMKRpsVleZsCN6D-569" style="edgeStyle=none;orthogonalLoop=1;jettySize=auto;html=1;entryX=0.5;entryY=0;entryDx=0;entryDy=0;strokeColor=#457B9D;fontColor=#1D3557;labelBackgroundColor=#F1FAEE;" edge="1" parent="1" source="qDmlWPMKRpsVleZsCN6D-570" target="qDmlWPMKRpsVleZsCN6D-578">
          <mxGeometry relative="1" as="geometry" />
        </mxCell>
        <mxCell id="qDmlWPMKRpsVleZsCN6D-570" value="19" style="ellipse;whiteSpace=wrap;html=1;aspect=fixed;fillColor=#e51400;strokeColor=#B20000;fontColor=#ffffff;" vertex="1" parent="1">
          <mxGeometry x="663" y="1854" width="20" height="20" as="geometry" />
        </mxCell>
        <mxCell id="qDmlWPMKRpsVleZsCN6D-571" style="edgeStyle=none;orthogonalLoop=1;jettySize=auto;html=1;entryX=0.5;entryY=0;entryDx=0;entryDy=0;strokeColor=#457B9D;fontColor=#1D3557;labelBackgroundColor=#F1FAEE;" edge="1" parent="1" source="qDmlWPMKRpsVleZsCN6D-573" target="qDmlWPMKRpsVleZsCN6D-576">
          <mxGeometry relative="1" as="geometry" />
        </mxCell>
        <mxCell id="qDmlWPMKRpsVleZsCN6D-572" style="edgeStyle=none;orthogonalLoop=1;jettySize=auto;html=1;entryX=0.5;entryY=0;entryDx=0;entryDy=0;strokeColor=#457B9D;fontColor=#1D3557;labelBackgroundColor=#F1FAEE;" edge="1" parent="1" source="qDmlWPMKRpsVleZsCN6D-573" target="qDmlWPMKRpsVleZsCN6D-577">
          <mxGeometry relative="1" as="geometry" />
        </mxCell>
        <mxCell id="qDmlWPMKRpsVleZsCN6D-573" value="25" style="ellipse;whiteSpace=wrap;html=1;aspect=fixed;fillColor=#A8DADC;strokeColor=#457B9D;fontColor=#1D3557;" vertex="1" parent="1">
          <mxGeometry x="563" y="1854" width="20" height="20" as="geometry" />
        </mxCell>
        <mxCell id="qDmlWPMKRpsVleZsCN6D-574" value="17" style="ellipse;whiteSpace=wrap;html=1;aspect=fixed;fillColor=#A8DADC;strokeColor=#457B9D;fontColor=#1D3557;" vertex="1" parent="1">
          <mxGeometry x="733" y="1854" width="20" height="20" as="geometry" />
        </mxCell>
        <mxCell id="qDmlWPMKRpsVleZsCN6D-575" value="1" style="ellipse;whiteSpace=wrap;html=1;aspect=fixed;fillColor=#A8DADC;strokeColor=#457B9D;fontColor=#1D3557;" vertex="1" parent="1">
          <mxGeometry x="813" y="1854" width="20" height="20" as="geometry" />
        </mxCell>
        <mxCell id="qDmlWPMKRpsVleZsCN6D-576" value="7" style="ellipse;whiteSpace=wrap;html=1;aspect=fixed;fillColor=#A8DADC;strokeColor=#457B9D;fontColor=#1D3557;" vertex="1" parent="1">
          <mxGeometry x="533" y="1924" width="20" height="20" as="geometry" />
        </mxCell>
        <mxCell id="qDmlWPMKRpsVleZsCN6D-577" value="3" style="ellipse;whiteSpace=wrap;html=1;aspect=fixed;fillColor=#A8DADC;strokeColor=#457B9D;fontColor=#1D3557;" vertex="1" parent="1">
          <mxGeometry x="593" y="1924" width="20" height="20" as="geometry" />
        </mxCell>
        <mxCell id="qDmlWPMKRpsVleZsCN6D-578" value="19" style="ellipse;whiteSpace=wrap;html=1;aspect=fixed;fontColor=#1D3557;strokeColor=#457B9D;fillColor=#A8DADC;" vertex="1" parent="1">
          <mxGeometry x="643" y="1924" width="20" height="20" as="geometry" />
        </mxCell>
        <mxCell id="qDmlWPMKRpsVleZsCN6D-580" style="edgeStyle=none;orthogonalLoop=1;jettySize=auto;html=1;entryX=0.5;entryY=0;entryDx=0;entryDy=0;strokeColor=#457B9D;fontColor=#1D3557;labelBackgroundColor=#F1FAEE;" edge="1" parent="1" source="qDmlWPMKRpsVleZsCN6D-582" target="qDmlWPMKRpsVleZsCN6D-588">
          <mxGeometry relative="1" as="geometry" />
        </mxCell>
        <mxCell id="qDmlWPMKRpsVleZsCN6D-581" style="edgeStyle=none;orthogonalLoop=1;jettySize=auto;html=1;exitX=0;exitY=0.5;exitDx=0;exitDy=0;entryX=0.5;entryY=0;entryDx=0;entryDy=0;strokeColor=#457B9D;fontColor=#1D3557;labelBackgroundColor=#F1FAEE;" edge="1" parent="1" source="qDmlWPMKRpsVleZsCN6D-582" target="qDmlWPMKRpsVleZsCN6D-585">
          <mxGeometry relative="1" as="geometry" />
        </mxCell>
        <mxCell id="qDmlWPMKRpsVleZsCN6D-582" value="90" style="ellipse;whiteSpace=wrap;html=1;aspect=fixed;fillColor=#A8DADC;strokeColor=#457B9D;fontColor=#1D3557;" vertex="1" parent="1">
          <mxGeometry x="1054" y="1714" width="20" height="20" as="geometry" />
        </mxCell>
        <mxCell id="qDmlWPMKRpsVleZsCN6D-583" style="edgeStyle=none;orthogonalLoop=1;jettySize=auto;html=1;entryX=0.5;entryY=0;entryDx=0;entryDy=0;strokeColor=#457B9D;fontColor=#1D3557;labelBackgroundColor=#F1FAEE;" edge="1" parent="1" source="qDmlWPMKRpsVleZsCN6D-585" target="qDmlWPMKRpsVleZsCN6D-590">
          <mxGeometry relative="1" as="geometry" />
        </mxCell>
        <mxCell id="qDmlWPMKRpsVleZsCN6D-584" style="orthogonalLoop=1;jettySize=auto;html=1;entryX=0.5;entryY=0;entryDx=0;entryDy=0;strokeColor=#457B9D;fontColor=#1D3557;labelBackgroundColor=#F1FAEE;" edge="1" parent="1" source="qDmlWPMKRpsVleZsCN6D-585" target="qDmlWPMKRpsVleZsCN6D-593">
          <mxGeometry relative="1" as="geometry" />
        </mxCell>
        <mxCell id="qDmlWPMKRpsVleZsCN6D-585" value="36" style="ellipse;whiteSpace=wrap;html=1;aspect=fixed;fillColor=#A8DADC;strokeColor=#457B9D;fontColor=#1D3557;" vertex="1" parent="1">
          <mxGeometry x="984" y="1784" width="20" height="20" as="geometry" />
        </mxCell>
        <mxCell id="qDmlWPMKRpsVleZsCN6D-586" style="edgeStyle=none;orthogonalLoop=1;jettySize=auto;html=1;entryX=0.5;entryY=0;entryDx=0;entryDy=0;strokeColor=#457B9D;fontColor=#1D3557;labelBackgroundColor=#F1FAEE;" edge="1" parent="1" source="qDmlWPMKRpsVleZsCN6D-588" target="qDmlWPMKRpsVleZsCN6D-594">
          <mxGeometry relative="1" as="geometry" />
        </mxCell>
        <mxCell id="qDmlWPMKRpsVleZsCN6D-587" style="edgeStyle=none;orthogonalLoop=1;jettySize=auto;html=1;entryX=0.5;entryY=0;entryDx=0;entryDy=0;strokeColor=#457B9D;fontColor=#1D3557;labelBackgroundColor=#F1FAEE;" edge="1" parent="1" source="qDmlWPMKRpsVleZsCN6D-588" target="qDmlWPMKRpsVleZsCN6D-595">
          <mxGeometry relative="1" as="geometry" />
        </mxCell>
        <mxCell id="qDmlWPMKRpsVleZsCN6D-588" value="26" style="ellipse;whiteSpace=wrap;html=1;aspect=fixed;fillColor=#A8DADC;strokeColor=#457B9D;fontColor=#1D3557;" vertex="1" parent="1">
          <mxGeometry x="1124" y="1784" width="20" height="20" as="geometry" />
        </mxCell>
        <mxCell id="qDmlWPMKRpsVleZsCN6D-589" style="edgeStyle=none;orthogonalLoop=1;jettySize=auto;html=1;entryX=0.5;entryY=0;entryDx=0;entryDy=0;strokeColor=#457B9D;fontColor=#1D3557;labelBackgroundColor=#F1FAEE;" edge="1" parent="1" source="qDmlWPMKRpsVleZsCN6D-590" target="qDmlWPMKRpsVleZsCN6D-598">
          <mxGeometry relative="1" as="geometry" />
        </mxCell>
        <mxCell id="qDmlWPMKRpsVleZsCN6D-590" value="19" style="ellipse;whiteSpace=wrap;html=1;aspect=fixed;fillColor=#A8DADC;strokeColor=#457B9D;fontColor=#1D3557;" vertex="1" parent="1">
          <mxGeometry x="1024" y="1854" width="20" height="20" as="geometry" />
        </mxCell>
        <mxCell id="qDmlWPMKRpsVleZsCN6D-591" style="edgeStyle=none;orthogonalLoop=1;jettySize=auto;html=1;entryX=0.5;entryY=0;entryDx=0;entryDy=0;strokeColor=#457B9D;fontColor=#1D3557;labelBackgroundColor=#F1FAEE;" edge="1" parent="1" source="qDmlWPMKRpsVleZsCN6D-593" target="qDmlWPMKRpsVleZsCN6D-596">
          <mxGeometry relative="1" as="geometry" />
        </mxCell>
        <mxCell id="qDmlWPMKRpsVleZsCN6D-592" style="edgeStyle=none;orthogonalLoop=1;jettySize=auto;html=1;entryX=0.5;entryY=0;entryDx=0;entryDy=0;strokeColor=#457B9D;fontColor=#1D3557;labelBackgroundColor=#F1FAEE;" edge="1" parent="1" source="qDmlWPMKRpsVleZsCN6D-593" target="qDmlWPMKRpsVleZsCN6D-597">
          <mxGeometry relative="1" as="geometry" />
        </mxCell>
        <mxCell id="qDmlWPMKRpsVleZsCN6D-593" value="25" style="ellipse;whiteSpace=wrap;html=1;aspect=fixed;fillColor=#A8DADC;strokeColor=#457B9D;fontColor=#1D3557;" vertex="1" parent="1">
          <mxGeometry x="924" y="1854" width="20" height="20" as="geometry" />
        </mxCell>
        <mxCell id="qDmlWPMKRpsVleZsCN6D-594" value="17" style="ellipse;whiteSpace=wrap;html=1;aspect=fixed;fillColor=#A8DADC;strokeColor=#457B9D;fontColor=#1D3557;" vertex="1" parent="1">
          <mxGeometry x="1094" y="1854" width="20" height="20" as="geometry" />
        </mxCell>
        <mxCell id="qDmlWPMKRpsVleZsCN6D-595" value="1" style="ellipse;whiteSpace=wrap;html=1;aspect=fixed;fillColor=#A8DADC;strokeColor=#457B9D;fontColor=#1D3557;" vertex="1" parent="1">
          <mxGeometry x="1174" y="1854" width="20" height="20" as="geometry" />
        </mxCell>
        <mxCell id="qDmlWPMKRpsVleZsCN6D-596" value="7" style="ellipse;whiteSpace=wrap;html=1;aspect=fixed;fillColor=#A8DADC;strokeColor=#457B9D;fontColor=#1D3557;" vertex="1" parent="1">
          <mxGeometry x="894" y="1924" width="20" height="20" as="geometry" />
        </mxCell>
        <mxCell id="qDmlWPMKRpsVleZsCN6D-597" value="3" style="ellipse;whiteSpace=wrap;html=1;aspect=fixed;fillColor=#A8DADC;strokeColor=#457B9D;fontColor=#1D3557;" vertex="1" parent="1">
          <mxGeometry x="954" y="1924" width="20" height="20" as="geometry" />
        </mxCell>
        <mxCell id="qDmlWPMKRpsVleZsCN6D-598" value="2" style="ellipse;whiteSpace=wrap;html=1;aspect=fixed;" vertex="1" parent="1">
          <mxGeometry x="1004" y="1924" width="20" height="20" as="geometry" />
        </mxCell>
        <mxCell id="qDmlWPMKRpsVleZsCN6D-599" value="" style="ellipse;whiteSpace=wrap;html=1;aspect=fixed;fillColor=#e3c800;strokeColor=#B09500;fontColor=#000000;" vertex="1" parent="1">
          <mxGeometry x="586" y="520" width="20" height="20" as="geometry" />
        </mxCell>
        <mxCell id="qDmlWPMKRpsVleZsCN6D-601" value="start adjust" style="text;html=1;align=center;verticalAlign=middle;resizable=0;points=[];autosize=1;strokeColor=none;fillColor=none;fontColor=#1D3557;" vertex="1" parent="1">
          <mxGeometry x="615" y="520" width="70" height="20" as="geometry" />
        </mxCell>
        <mxCell id="qDmlWPMKRpsVleZsCN6D-602" value="" style="ellipse;whiteSpace=wrap;html=1;aspect=fixed;fillColor=#e51400;strokeColor=#B20000;fontColor=#ffffff;" vertex="1" parent="1">
          <mxGeometry x="586" y="550" width="20" height="20" as="geometry" />
        </mxCell>
        <mxCell id="qDmlWPMKRpsVleZsCN6D-603" value="adjust copy" style="text;html=1;align=center;verticalAlign=middle;resizable=0;points=[];autosize=1;strokeColor=none;fillColor=none;fontColor=#1D3557;" vertex="1" parent="1">
          <mxGeometry x="610" y="550" width="80" height="20" as="geometry" />
        </mxCell>
        <mxCell id="qDmlWPMKRpsVleZsCN6D-604" value="" style="ellipse;whiteSpace=wrap;html=1;aspect=fixed;" vertex="1" parent="1">
          <mxGeometry x="586" y="578" width="20" height="20" as="geometry" />
        </mxCell>
        <mxCell id="qDmlWPMKRpsVleZsCN6D-606" value="push_heap" style="text;html=1;align=center;verticalAlign=middle;resizable=0;points=[];autosize=1;strokeColor=none;fillColor=none;fontColor=#1D3557;" vertex="1" parent="1">
          <mxGeometry x="618" y="578" width="70" height="20" as="geometry" />
        </mxCell>
      </root>
    </mxGraphModel>
  </diagram>
</mxfile>
